/* XPM */
static char * address_hidpi_xpm[] = {
"80 80 253 2",
"  	c None",
". 	c #666666",
"+ 	c #606060",
"@ 	c #535353",
"# 	c #444444",
"$ 	c #383838",
"% 	c #2D2D2D",
"& 	c #232323",
"* 	c #1E1E1E",
"= 	c #202020",
"- 	c #262626",
"; 	c #2E2E2E",
"> 	c #505050",
", 	c #575757",
"' 	c #3A3A3A",
") 	c #474747",
"! 	c #525252",
"~ 	c #484848",
"{ 	c #3B3B3B",
"] 	c #303030",
"^ 	c #1D1D1D",
"/ 	c #191919",
"( 	c #1B1B1B",
"_ 	c #272727",
": 	c #454545",
"< 	c #4B4B4B",
"[ 	c #313131",
"} 	c #171717",
"| 	c #030303",
"1 	c #5F5F5F",
"2 	c #434343",
"3 	c #060606",
"4 	c #111111",
"5 	c #353535",
"6 	c #373737",
"7 	c #141414",
"8 	c #121212",
"9 	c #151515",
"0 	c #1A1A1A",
"a 	c #333333",
"b 	c #0D0D0D",
"c 	c #020202",
"d 	c #181818",
"e 	c #4F4F4F",
"f 	c #595959",
"g 	c #515151",
"h 	c #050505",
"i 	c #0E0E0E",
"j 	c #161616",
"k 	c #0F0F0F",
"l 	c #0C0C0C",
"m 	c #131313",
"n 	c #2F2F2F",
"o 	c #4A4A4A",
"p 	c #414141",
"q 	c #343434",
"r 	c #070707",
"s 	c #0B0B0B",
"t 	c #101010",
"u 	c #212121",
"v 	c #242424",
"w 	c #252525",
"x 	c #222222",
"y 	c #0A0A0A",
"z 	c #1F1F1F",
"A 	c #282828",
"B 	c #2A2A2A",
"C 	c #393939",
"D 	c #2B2B2B",
"E 	c #1C1C1C",
"F 	c #323232",
"G 	c #3F3F3F",
"H 	c #424242",
"I 	c #404040",
"J 	c #3E3E3E",
"K 	c #292929",
"L 	c #090909",
"M 	c #3C3C3C",
"N 	c #4D4D4D",
"O 	c #545454",
"P 	c #585858",
"Q 	c #5A5A5A",
"R 	c #555555",
"S 	c #494949",
"T 	c #6E6E6E",
"U 	c #848484",
"V 	c #8F8F8F",
"W 	c #919191",
"X 	c #888888",
"Y 	c #787878",
"Z 	c #636363",
"` 	c #5C5C5C",
" .	c #5D5D5D",
"..	c #616161",
"+.	c #646464",
"@.	c #626262",
"#.	c #5E5E5E",
"$.	c #3D3D3D",
"%.	c #363636",
"&.	c #080808",
"*.	c #4C4C4C",
"=.	c #6B6B6B",
"-.	c #9B9B9B",
";.	c #BABABA",
">.	c #CACACA",
",.	c #CDCDCD",
"'.	c #C3C3C3",
").	c #AEAEAE",
"!.	c #929292",
"~.	c #7A7A7A",
"{.	c #6D6D6D",
"].	c #676767",
"^.	c #656565",
"/.	c #7B7B7B",
"(.	c #B0B0B0",
"_.	c #D4D4D4",
":.	c #E8E8E8",
"<.	c #EDEDED",
"[.	c #E6E6E6",
"}.	c #D5D5D5",
"|.	c #BEBEBE",
"1.	c #A5A5A5",
"2.	c #8C8C8C",
"3.	c #6C6C6C",
"4.	c #686868",
"5.	c #818181",
"6.	c #B1B1B1",
"7.	c #E9E9E9",
"8.	c #F3F3F3",
"9.	c #F4F4F4",
"0.	c #EEEEEE",
"a.	c #E2E2E2",
"b.	c #AFAFAF",
"c.	c #909090",
"d.	c #696969",
"e.	c #6A6A6A",
"f.	c #5B5B5B",
"g.	c #565656",
"h.	c #767676",
"i.	c #8D8D8D",
"j.	c #A7A7A7",
"k.	c #BFBFBF",
"l.	c #F8F8F8",
"m.	c #F5F5F5",
"n.	c #E7E7E7",
"o.	c #CFCFCF",
"p.	c #747474",
"q.	c #4E4E4E",
"r.	c #464646",
"s.	c #2C2C2C",
"t.	c #949494",
"u.	c #A1A1A1",
"v.	c #A2A2A2",
"w.	c #A4A4A4",
"x.	c #C9C9C9",
"y.	c #E5E5E5",
"z.	c #F6F6F6",
"A.	c #FAFAFA",
"B.	c #CECECE",
"C.	c #AAAAAA",
"D.	c #878787",
"E.	c #737373",
"F.	c #797979",
"G.	c #C7C7C7",
"H.	c #B9B9B9",
"I.	c #A6A6A6",
"J.	c #9A9A9A",
"K.	c #CCCCCC",
"L.	c #868686",
"M.	c #717171",
"N.	c #707070",
"O.	c #9D9D9D",
"P.	c #C8C8C8",
"Q.	c #E1E1E1",
"R.	c #DCDCDC",
"S.	c #C5C5C5",
"T.	c #999999",
"U.	c #F7F7F7",
"V.	c #FBFBFB",
"W.	c #E4E4E4",
"X.	c #727272",
"Y.	c #BDBDBD",
"Z.	c #C4C4C4",
"`.	c #9E9E9E",
" +	c #B4B4B4",
".+	c #D6D6D6",
"++	c #DADADA",
"@+	c #6F6F6F",
"#+	c #858585",
"$+	c #D8D8D8",
"%+	c #EFEFEF",
"&+	c #F9F9F9",
"*+	c #C6C6C6",
"=+	c #C1C1C1",
"-+	c #DEDEDE",
";+	c #F1F1F1",
">+	c #BBBBBB",
",+	c #959595",
"'+	c #DDDDDD",
")+	c #898989",
"!+	c #7E7E7E",
"~+	c #7C7C7C",
"{+	c #040404",
"]+	c #A3A3A3",
"^+	c #D3D3D3",
"/+	c #EAEAEA",
"(+	c #B3B3B3",
"_+	c #BCBCBC",
":+	c #E0E0E0",
"<+	c #ABABAB",
"[+	c #7F7F7F",
"}+	c #7D7D7D",
"|+	c #777777",
"1+	c #D7D7D7",
"2+	c #F2F2F2",
"3+	c #F0F0F0",
"4+	c #D0D0D0",
"5+	c #939393",
"6+	c #828282",
"7+	c #D9D9D9",
"8+	c #838383",
"9+	c #808080",
"0+	c #757575",
"a+	c #DFDFDF",
"b+	c #ADADAD",
"c+	c #CBCBCB",
"d+	c #8A8A8A",
"e+	c #B6B6B6",
"f+	c #C2C2C2",
"g+	c #8E8E8E",
"h+	c #EBEBEB",
"i+	c #B5B5B5",
"j+	c #DBDBDB",
"k+	c #A9A9A9",
"l+	c #979797",
"m+	c #989898",
"n+	c #9F9F9F",
"o+	c #969696",
"p+	c #A0A0A0",
"q+	c #ACACAC",
"r+	c #9C9C9C",
"s+	c #D2D2D2",
"t+	c #8B8B8B",
"u+	c #ECECEC",
"v+	c #B2B2B2",
"w+	c #B8B8B8",
"x+	c #D1D1D1",
"y+	c #B7B7B7",
"z+	c #C0C0C0",
"A+	c #FCFCFC",
"B+	c #E3E3E3",
"C+	c #FDFDFD",
"D+	c #A8A8A8",
"                                                                . + @ # $ % & * = - ; $ # > , > ' *                                                             ",
"                                                              ) @ ! ~ { ] - ^ / ( = _ ] ' : < : [ } |                                                           ",
"                                                  1 2 = 3 | 4 _ 5 6 ] _ = / 7 4 8 9 0 = _ ; a ; = b c | d 6 e                                                   ",
"                                              e f g ' 0 h | h i j d 9 8 4 4 4 4 4 4 k k 4 7 j 7 l h c | m n 2 o p                                               ",
"                                          : q [ ' $ _ 4 r s t m 9 j d 0 * u v w v x * ( d 9 m 4 i y r h l z % ] A B C                                           ",
"                                        p { D E E E 9 t 7 * A ; F a 5 $ { G p H I J { $ 5 [ % K & E 9 b L b m m 7 u ] 5                                         ",
"                                    t = % 5 M H ) ) 2 M 5 6 I ) o N e g O P Q Q P R @ > N S : G $ ] A z } 4 s r L 9 z u / l                                     ",
"                                  8 h l _ N T U V W X Y Z R R P Q `  .1 ..Z +.+.@.+ #.` Q , O > < # $.%.n _ ^ 8 y L l l &.h k                                   ",
"                              *.q 9 | &.q =.-.;.>.,.'.).!.~.{.].+.Z +.^.^.^.+.Z @...+ 1 #. .` Q P O e o 2 ' n & } i &.3 h h m % H                               ",
"                            S p % m r 4 J /.(._.:.<.[.}.|.1.2.Y 3.].].4.].. Z @...+ + 1 1 #.#. .` Q , ! N ) G 5 D u } k y L m A C p                             ",
"                        [ a a % = 0 w a g 5.6._.7.8.9.0.a.,.b.c.Y =.d.e.d.4.. +.Z @.....+ 1 ` f.Q P g.@ > N o : M F _ ^ 9 t m * K n ] n                         ",
"                        A v ^ 9 ( q e Z h.i.j.k._.[.8.l.m.n.o.b.i.p.3.=.=.=.e.4.].+.@...+ #.` Q P , O ! > e q.< r.J %.% v E } j / * v A                         ",
"                    [ A = } k t s.g.~.t.u.1.v.w.(.x.y.z.A.m.:.B.C.D.E.3.3.{.T {.e.].Z ..+ #. .f.Q , R ! > q.N < ~ : p ' F A z / } d ( = - D                     ",
"                    a v j l k & ~ F.1.k.>.G.H.I.J.C.K.[.m.A.z.[.x.j.L.M.T N.N.T =.4.^.Z ..1  .` ` Q , O ! e *.o S ) : p ' F A u ^ 0 / E x K                     ",
"                  S a ^ i b u p e.O.P.Q.:.n.R.S.I.T.).,.:.U.V.9.W.G.O./.M.X.M.T =.d.4.].Z + #. . .` Q , R ! q.< S ) : 2 J $ ] A & = ^ E * - ]                   ",
"                *.p % 9 b ^ { ^.W Y.Q.8.l.U.8.a.Z.j.`. +.+0.l.V.9.++b.D.Y h.p.X.@+{.3.e.. @.#. .#. .f.f , O > N o ) : H I { 5 ; K w & z * x D ]                 ",
"                q % * t d n O #+ +$+%+&+V.V.A.8.a.*+j.1.=+-+;+V.l.a.>+,+5.~.F.Y h.p.N.3.4.+.+ #. .` f.Q P g.! q.*.S : H G M 6 F % B - & u u x &                 ",
"              8 9 8 t d B p . J.x.:.z.A.A.A.V.A.8.'+>+1.b.K.7.&+&+[.Z.u.)+!+~+~+/.Y p.N.=.].Z + #.` f.Q f , @ > q.o r.p J { $ q ] % K _ _ w = E d               ",
"            k h {+r 7 A $.> N.]+^+%+&+V.A.A.A.V.&+/+o.(+I._+:+z.&+7.K.<+V [+}+}+~+~.|+p.@+e.. Z ..#.` Q Q P R ! e < r.p J { $ 5 F ; B B s.s._ x E               ",
"            * y 3 4 & ' q.` h.j.1+2+A.A.&+&+&+A.&+2+Q.Z.j.(.}.3+z./+4+(.5+6+[+[+!+~+F.h.E.T d.. Z +  .f.Q f g.@ > *.) 2 G M C %.F ; D D ; ] ; K x ^             ",
"          J _ k s * a S f.Z |+j.7+8.&+&+l.U.l.l.&+U.<.^+(.C.x.y.;+7.o.(.,+L.8+6+9+}+~.Y h.X.3.].^.@.#.f.Q f , O > N S : H J { 6 F ; B B % ] [ ; K w             ",
"        H $ w k 8 B H R ..^.0+1.$+2+&+l.U.U.z.U.l.&+9.a+_+b+k.++/+y.c+<+,+d+X L.8+[+/.F.|+E.T d.. Z 1 ` f.f , O > N o ) 2 I $.C q n B A K ; a q [ % B           ",
"        ; - 0 i ( %.q. .Z Z X.u.^+%+l.&+l.U.z.U.U.&+z.[.>.e+H.B.Q.'+f+w.t.g+2.d+#+9+}+/.Y p.@+=.].+...#.f.f , O g N o ) # p J ' 5 ] B w v B a 6 %.a ;           ",
"        m k b j B H , ..@.+ T T.x.n.m.A.&+U.U.U.U.&+U.h+_.|. +|.B.K.i+`.t.W c.i.D.6+[+~+F.0+N.3.4.+...#.f.f , R ! e < ) # I $.C 5 ] D v u - ] 6 ' $ F %         ",
"        | | i & C N ` @.+  .d.g+;.j+3+&+A.l.U.U.l.A.l.0.++'.(.b+ + +j.-.,+5+!.g+)+#+9+}+~.h.M.3.4.+.+  .f.f , g.O g N S # I M $ a n D w = x B 5 M M 6 a         ",
"      c c | m % : R #...1 ` ^.6+k+B./+&+V.&+U.U.l.A.&+3+-+*+).u.v.v.`.J.l+,+!.g+d+L.6+!+~.h.M.3.].Z 1 ` Q f P g.O g N S : I M $ q ] D - u z v [ $.I $.' '       ",
"      c | 3 / 5 N Q #.#.#. .@.h.m+=+y.l.V.&+l.U.U.&+&+;+:+P.).n+`.n+O.J.m+o+!.g+d+L.6+!+~.0+N.=.. @.1 ` f.Q f g.@ e < ~ # p $.' %.[ % A x * = % M H H G J       ",
"    c c h t v $.@ `  .`  .#.+ 3.)+e+:+U.V.A.&+l.U.l.&+2+a.x.b.p+n+p+O.J.m+o+!.i.)+#+5.}+F.0+N.=.. @.1  .` f.f g.@ e < ~ # p J { 6 a ; A & * E K C H : 2 G M     ",
"    c c L 0 ; : , #.` ` #.1 1 +.~+q+j+9.A.V.A.&+U.l.&+8.W.K.(.n+`.n+r+T.l+,+!.g+)+U 9+~+F.0+M.=.. @.1 #. .f.f g.O g N S : p G M $ a ; A & ^ / x F G ) r.I '     ",
"    | c l u %.o f #. .` #.+ 1 + X.v.s+0.l.A.V.&+U.l.&+9.[.B.6.`.-.O.-.m+,+5+c.i.)+U [+~+F.0+N.=.. @.1  .` f.P g.O g N S : p J { 6 a % A & E } ^ D M ~ o 2 M     ",
"    k h i w { N f  .` ` 1 + 1  .=.,+'.a.8.&+A.l.l.&+A.z.7.s+(+O.T.J.m+,+!.c.i.t+X #+9+/.Y p.@+e.. @.#.` f.Q , R ! e < ) # I $.' 6 F s.- u E j d - C S N ~ p     ",
"  H v b t A J N , Q Q f.#.1 1  .].D.(.^+u+l.&+l.l.&+A.l.0.$+H.n+l+o+,+5+c.i.d+X L.6+!+~.h.E.T e.^... .f.Q f , O g N S : H G M C %.[ D - u E j 9 = %.S e *.)     ",
"#.N [ 7 8 D I q.O g., f ` #.#. .Z F.-.'.W.z.l.U.l.&+A.&+8.Q.=+w.,+W c.c.i.d+X #+5.!+/.Y p.M.{.d.+.1 ` f.Q f g.O > *.~ : p J { $ 5 ] B w x ^ } m ( F r.e e N     ",
"f *.a } j ; 2 e @ O R P ` #.#. .+ 3.D.v+j+;+l.l.l.l.&+A.U.7.,.).o+t+t+2.t+)+L.6+!+/.Y h.E.@+=.. ..#.` f.Q P R ! e *.~ : p J { 6 a ; B w x * d 8 d ; # > @ O R   ",
"q.2 % } 0 F r.g O O R P ` #. .`  .Z Y ]+o./+z.&+&+l.l.&+&+%+++Y.r+L.U X X D.U 9+}+~.Y 0+M.3.].@.1  .` ` Q , O > q.< ~ : p J ' %.[ % K w u ^ / m } % 2 g P Q f , ",
"I 6 w j z 5 ~ g @ @ O , f.#. .` f. .{.5+Y.'+;+&+A.&+l.&+&+9.n.K.j.)+9+6+8+8+9+}+/.F.|+E.T d.^...#.` ` f.f g.@ e N o ) # p $.C 5 [ s.A v u ^ / m } % # @ `  .Q , ",
"q s.* } x %.) > g g ! R f ` #. .f.f.. 6+j.c+:.U.&+l.l.&+A.l.;+R.;.m+8+~+~+}+/.F.Y h.E.@+d.^.+.@.1  .f.Q P R ! e < ~ # p J { $ q ] s.A v = E } 8 } ; : R #.1 f., ",
"K x d d - $ ) q.e > g @ , Q  . .` ` @.X.V w+a+8.&+&+&+&+&+A.U./+x+v+!.~+h.|+Y |+0+X.T d.+.@.@...#.` Q f g.O g q.o r.H G $.' 6 a n D - x z ( j 4 } ; r.g.1 + ` P ",
"* / m d _ $ r.N q.e g @ R P `  . . .+ ].~+I.s+u+U.&+&+l.l.&+A.m.:.B.C.X Y p.0+p.M.{.d.e.T M.X.{.^.1 f.P R ! > N o : p $.M ' %.[ % K v = ^ 0 j 4 } ; r., + .. .Q ",
"} m t d A $ : *.N q.g @ O g.f f.`  .#.+ T 5+Y.'+;+l.&+U.l.&+V.V.z.y.P.1.L.E.@+@+3.e.T 9+o+]+]+m+8+T 1 , ! > N < ~ # G M ' $ q n D _ x * ( / j 4 } ; r., ..Z 1 f.",
"j 8 k } _ 6 # o < < q.g @ R , f Q ` `  .. }+p+*+y.m.l.l.l.&+A.V.V.9.W.G.n+/.=.].. 4.F.r+=+}..+G.<+2.E.+ R q.o ~ : H J { C %.F % K w u * ( d 9 t } n ) f Z ^.+ ` ",
"/ 9 t } w %.H ~ ~ ~ < e ! O R , f Q f.` + =.U )..+0.z.l.&+&+&+A.A.A.9.:+|.l+Y ^.+ ].[+q+$+3+8.[.o. +J.9+^.> ) : H I $.' $ q ] D _ v = ^ ( d 7 k } ] S f.. 4.Z #.",
"u E 7 j & a G : : r.S *.e g @ R P f Q f.` + M.T.'.Q.2+l.&+l.l.l.&+A.&+%+j+_+l+|+4.e.[+q+7+2+&+m.7.7+Z.I.9+ .o 2 I J $.' 6 a ; B - x z ^ 0 } 8 b d F *.#.4.e.^...",
"n _ ( 9 = n M 2 # # ) S *.e g O g.P f Q Q f.^.8+<+o./+U.&+l.l.l.l.&+A.U.0.++Y.n+X ~.!+O.Z.:+3+U.U.3+Q.*+u.F.f : J $.{ C %.[ s.A v = * E / 9 k y / %.> ..d.d.. @.",
"J 5 v 9 ( s.' p H 2 # ) o N > ! O g.P f f f  .{.2.y+-+8.l.&+&+&+&+&+A.A.U.%+:+>.(.m+d+i.u.k.R.%+l.l.;+-+z+J.@+o M ' C %.a ; B w x * E / j 4 s r 0 ' R +.4.].+.@.",
"N H % j j A 6 J I p H : ~ < q.> ! O g.P f P f #.X.r+G.W.8.l.&+&+&+&+&+&+A.l.8.n._.z+(.`.W `.Y.j+%+&+l.0.7+e+U ! { $ %.a ] D _ & z E / } m i &.h ( $.f . d.].Z + ",
"f *.a } 4 v q M J J p 2 r.S *.q.> ! O g., , P P Z 5.j.c+[.9.l.l.l.l.l.l.l.A.&+m.<.W.++S.I.W -.>+'+;+l.z./+K.m++ I 6 q [ % K v = ^ 0 } 7 t l 3 {+E G f.d.=.4.@.#.",
"#.N [ 7 b = ] C { $.G p 2 : S < q.> ! @ O R R g.f.=.D.b+x+7.8.U.l.l.U.U.U.l.&+&+l.U.8.W.G.w.t+T.|.-+3+l.2+7+<+h.e $ ] ; D _ x * ( d 9 4 i y h {+^ H 1 {.@+=.+. .",
"  H v l s E s.5 C { $.J G p # ~ < q.e > g g ! @ g. .@+c.e+}./+z.&+&+l.l.U.U.l.&+&+A.A.9.W.*+`.X T.|.Q.8.9.Q.|.W +.M s.D A w u ^ ( d 7 t s r h &.x r.+.X.E.N.d.  ",
"    k h &.d - ] %.C { M $.J p : ~ < *.N N q.e > ! R #.0+o+;.++0.U.&+&+l.U.U.l.l.l.&+A.V.m.a.=+-.D.p+c+:.;+7.^+b+F.2 A _ w x z E 0 j 8 b &.h &.9 ; e =.Y ~.Y     ",
"    | c 3 8 z B F %.$ C { J I H : ) S o < *.N q.e > O #.h.-.f+-+%+U.l.l.U.l.&+&+l.l.A.A+V.8.:+|.5+2.v+.+h+;+[.Z.t+o - v x z ^ 0 d 7 k L h {+k w I  .0+9+6+5.    ",
"    c c {+l d v % a 5 6 C M J G I 2 r.) ~ S o < *.*.N e ` ~+v.S.:+3+z.l.l.&+A.A.l.l.&+V.A+A.;+_.u.9+l+=+y.z.;+x+,+q.v x = E 0 d 9 4 l 3 | | d $ , M.8+d+)+L.    ",
"    c c | 3 t ^ K n [ a %.$ ' { M G H # # : r.) ~ S o o e + !+w.G.:+%+z.&+A.A.&+l.l.&+A.V.A+z.R.q+[+5.b.'+9.3+4+t.N u = * 0 } 9 m k L {+c {+x o T L.!.t.g+X     ",
"      c c | y d v D ; ] a 5 %.6 C { $.G p H 2 # : r.) ) ~ N  .[+I.*+-+<.z.&+&+l.U.U.l.&+&+A.U.W.|.!.!+w..+h+:+_+U # * * E / j 8 k s 3 | c 3 B P [+,+O.T.V D.    ",
"      c c c r 7 = _ B % ] F a q %.$ C { $.G p H H 2 # # # # o #.}+n+z+++u+z.l.U.U.U.U.l.l.A.l.<.^+b+d+n+c+$+k.t.Z a 0 ( ( / 9 t s r {+| &.d ' ].i.p+v.J.g+#+    ",
"        | | 3 t ( x - B s.n [ F a q 5 6 ' $.G I G G I I I I p r., h.J._+$+/+9.l.l.l.l.l.l.A.A.8.:+Y.W V (. +t.. J x j } d j 8 l r {+| {+j q , }+r+k+I.r+c.      ",
"        k l L l 7 E u w _ D ; ] ] ] [ a 6 ' M $.M { M M M M M $.H O X.,+w+}.7.9.&+A.A.&+&+V.A.9.W.=+i.X.8+)+0+f.~ $ _ d m t l r {+| {+&.- > |+l+<+(.C.p+,+      ",
"        _ = 9 l i j E = & - B s.% % ; ] a %.$ C $ $ C C C C C ' { G q.{.W (+o.y.9.A.A+V.V.A+V.2+-+;.D.^.X.D.W W #+T N A t y 3 {+| | 3 t 5 ].!.q+y+ +C.p+        ",
"        C ] = i s 8 d ^ z x w _ A K D % ] F a q 5 %.%.6 6 6 6 6 6 6 { *.].#+I.G.B+8.U.&+V.C+A.%+$+i+i.[+o+(+*+>.Y.p+X.G 0 y {+c c | 4 B > 9+D+_+|.i+j.O.        ",
"          5 u i L k j 0 E z u & v w _ B % ; % ; [ F a a a a q q q q q 6 p g.h.O.=+$+B+<.z.V.A.;+-+G.(+v+'.7+:.u+:+=+c.f ; m {+| | 3 w g /.u.Y.P.'.y+D+          ",
"            / L r b 7 d 0 E * z = x v - A A A K D % ; ; ; n n ] ] ] ] ; ; 6 *.3.2.I._+s+[.8.U.9.0.y.-+a+[.%+U.l.%+_.]+3.$.( h {+s * # |+w.=+o.B.Z.H.b+          ",
"            l h r b m d / 0 0 ( ^ * = x & v v w - A K B B B D D s.s.s.D B B n { > 3.t+C.Z.$+y.0.9.z.m.m.z.l.A.V.9.7+j.{.$.( h 3 ^ p e.m+k.^+.+K.Y.6.            ",
"              i 8 9 } d / / } } / ( E * z u u x x & w - _ - - _ _ A A A _ w x u K G Q p.g+D+f+7+h+8.8.8.m.U.&+&+2+1+p+..a ( t 0 ' . W i+B.$+_.Z.b.`.            ",
"                D _ z / / / j 9 9 j } / E * z z z z u & & & u u x & v v & x = ^ * v ; ' e N.,+e+B.1+$+-+7.2+z.U.%+s+-.1 { ; A ' 1 t+(+K..+}.c+>+w.              ",
"                G 6 A ( / 0 / j 8 4 8 9 d ( ^ ^ ( ( ^ * z z ^ E ^ z z z * ^ ( 0 / d } 9 & H ^.L.O.1.j.;.$+<.z.z.u+x+1./.4.1 Q 4.D.b+K.j+++o.=+v+                ",
"                  $.s.* / 0 ( 0 j 8 k t m j / / d } / 0 ( ( ( 0 ( ( ( ( 0 d d } } j 9 8 m u 6 ! ].3.p.`.o.<.U.z.0.R.f+).I.p+r+p+(.*+++a+1+x.;.q+                ",
"                    % x ( 0 ^ z ^ / m i b t m 7 7 7 j } d / 0 0 0 / } j 9 9 9 7 m 8 4 k l s j B { 2 1 -.s+;+&+l.8.h+a.R.++1+^+x+x+.+j+7+o.'.                    ",
"                    s.w z E * u x u E 9 k l b i k t 4 8 m 7 j } } j m 4 t t t t i b l y &.r &.4 v G e.1.$+8.A.A.l.9.3+%+2+2+%+7.Q.++}.B.*+k.                    ",
"                        w x = u w _ - u / 4 i l y y s l l i k 4 8 8 k l s y y L L &.r 3 h {+| h x < ~.b+$+3+l.l.z.3+/+h+2+z.9.u+Q._.x.f+                        ",
"                        D K _ w w A B K w = ( 9 b r 3 3 3 r &.y l l y &.3 h {+{+h {+{+| | c c {+u o h.w.>.a.u+<.n.a+++-+:.0.h+B+.+x.k.w+                        ",
"                            [ % A _ D ; ; % K x / t l y r {+{+h 3 3 h {+{+| | | | | c c c c c | j 5 f.L.q+P..+.+K.Z.*+4+j+Q.a+}.G._+                            ",
"                            C 5 [ % s.; ] F F n K & * / t &.{+| | | | | | | c c c c c | | | | | L / $ @.d+k+_+k.y+(+;.Z.,.s+s+>._+                              ",
"                                $.$ n B % a 6 $ 6 a n K = / 7 8 t k b l s y y L L y l k 8 9 / ( ^ u [ g X.V w.b+b.6.e+;.|.f+*+                                  ",
"                                  J [ B ; q 6 C { { ' $ q [ % B A - & u z ^ ( 0 0 E = - s.a C $.p r.e + p.D.m+]+<+).b.(.v+i+                                    ",
"                                      [ %.%.q 5 C $.I H # # H G $.' $ %.5 a F ] ] F 6 J : N O Q #.+.{.F.#+c.m+n+w.1.w.w.                                        ",
"                                          $ a 5 M I H # ~ S S S S S o o < < < o o *.e O f 1 ^.d.3.X./.#+g+,+J.`.n+`.-.                                          ",
"                                              J : r.2 p H # ~ < e @ g.f ` #.#.#.#.+ @.^.].e.{.T @+p.~+#+2.!.l+                                                  ",
"                                                  S H $.M G # < g , Q #...+.^.^.^.].d.e.=.{.T @+T X.~.6+X                                                       ",
"                                                                  g.P Q ` 1 + ....Z ^.].4.d.=.                                                                  ",
"                                                                    O R , f Q f.` #...Z Z +.                                                                    "};
