/* XPM */
static char * backup_hidpi_xpm[] = {
"54 48 470 2",
"  	c None",
". 	c #595959",
"+ 	c #585858",
"@ 	c #747474",
"# 	c #787878",
"$ 	c #797979",
"% 	c #777777",
"& 	c #717171",
"* 	c #8B8B8B",
"= 	c #959595",
"- 	c #949494",
"; 	c #939393",
"> 	c #878787",
", 	c #686868",
"' 	c #A0A0A0",
") 	c #999999",
"! 	c #929292",
"~ 	c #909090",
"{ 	c #9F9F9F",
"] 	c #919191",
"^ 	c #6C6C6C",
"/ 	c #3D3D3D",
"( 	c #858585",
"_ 	c #707070",
": 	c #6A6A6A",
"< 	c #7D7D7D",
"[ 	c #7F7F7F",
"} 	c #3C3C3C",
"| 	c #494949",
"1 	c #3E3E3E",
"2 	c #3F3F3F",
"3 	c #404040",
"4 	c #4B4B4B",
"5 	c #8A8A8A",
"6 	c #9B9B9B",
"7 	c #9A9A9A",
"8 	c #888888",
"9 	c #8F8F8F",
"0 	c #303030",
"a 	c #383838",
"b 	c #3A3A3A",
"c 	c #3B3B3B",
"d 	c #515151",
"e 	c #828282",
"f 	c #B0B0B0",
"g 	c #C8C8C8",
"h 	c #CECECE",
"i 	c #C7C7C7",
"j 	c #AEAEAE",
"k 	c #838383",
"l 	c #393939",
"m 	c #424242",
"n 	c #444444",
"o 	c #454545",
"p 	c #B3B3B3",
"q 	c #CACACA",
"r 	c #D0D0D0",
"s 	c #848484",
"t 	c #535353",
"u 	c #606060",
"v 	c #636363",
"w 	c #646464",
"x 	c #6B6B6B",
"y 	c #818181",
"z 	c #AAAAAA",
"A 	c #A8A8A8",
"B 	c #737373",
"C 	c #9C9C9C",
"D 	c #A1A1A1",
"E 	c #A2A2A2",
"F 	c #A5A5A5",
"G 	c #ADADAD",
"H 	c #B7B7B7",
"I 	c #D4D4D4",
"J 	c #D6D6D6",
"K 	c #D3D3D3",
"L 	c #D1D1D1",
"M 	c #E3E3E3",
"N 	c #DFDFDF",
"O 	c #E9E9E9",
"P 	c #DCDCDC",
"Q 	c #3C3D3C",
"R 	c #CFCFCF",
"S 	c #E2E2E2",
"T 	c #AFAFAF",
"U 	c #A7A7A7",
"V 	c #DEDEDE",
"W 	c #7E7E7E",
"X 	c #316201",
"Y 	c #316602",
"Z 	c #316101",
"` 	c #306B03",
" .	c #2F7707",
"..	c #2F7B08",
"+.	c #E8E8E8",
"@.	c #EEEEEE",
"#.	c #EDEDED",
"$.	c #D2D2D2",
"%.	c #306602",
"&.	c #2F7807",
"*.	c #2E8A0D",
"=.	c #2D8D0E",
"-.	c #2F7E09",
";.	c #306903",
">.	c #2F8009",
",.	c #2D9510",
"'.	c #2D9610",
").	c #2E810A",
"!.	c #306A03",
"~.	c #2E820A",
"{.	c #2C9911",
"].	c #2C9A11",
"^.	c #2E860B",
"/.	c #2F7004",
"(.	c #C9C9C9",
"_.	c #8E8F8E",
":.	c #2A9F12",
"<.	c #2A920D",
"[.	c #2B8207",
"}.	c #2D7503",
"|.	c #EBEBEB",
"1.	c #F1F1F1",
"2.	c #E5E5E5",
"3.	c #DBDBDB",
"4.	c #D8D8D8",
"5.	c #DADADA",
"6.	c #E6E6E5",
"7.	c #CECFCE",
"8.	c #9B9C9A",
"9.	c #7B7D7A",
"0.	c #8B8C8A",
"a.	c #8A8C8A",
"b.	c #696B68",
"c.	c #3B4139",
"d.	c #2B9C12",
"e.	c #28A713",
"f.	c #25A210",
"g.	c #27930A",
"h.	c #2B7E05",
"i.	c #D7D7D7",
"j.	c #F4F4F4",
"k.	c #FAFAFA",
"l.	c #FCFCFC",
"m.	c #F9F9F9",
"n.	c #F7F7F7",
"o.	c #F5F5F5",
"p.	c #EDEEED",
"q.	c #DCDFDC",
"r.	c #BABEB9",
"s.	c #898F86",
"t.	c #6D756A",
"u.	c #7B8278",
"v.	c #7A8278",
"w.	c #5E6859",
"x.	c #384C2E",
"y.	c #274C05",
"z.	c #2F5B00",
"A.	c #2B9D12",
"B.	c #26AC14",
"C.	c #22AB12",
"D.	c #249B0C",
"E.	c #2A8206",
"F.	c #2F6A02",
"G.	c #EFEFEF",
"H.	c #F6F6F6",
"I.	c #F2F2F2",
"J.	c #DFE1DE",
"K.	c #BCC2BA",
"L.	c #909D8C",
"M.	c #677D5F",
"N.	c #55714A",
"O.	c #5E7854",
"P.	c #4A6B3D",
"Q.	c #35621E",
"R.	c #2F6406",
"S.	c #306704",
"T.	c #306F05",
"U.	c #2E850B",
"V.	c #2B9F12",
"W.	c #25AE15",
"X.	c #20AE12",
"Y.	c #239F0D",
"Z.	c #298607",
"`.	c #2E7003",
" +	c #898989",
".+	c #B6B6B6",
"++	c #D2D2D1",
"@+	c #BBBFBA",
"#+	c #628257",
"$+	c #497D33",
"%+	c #45822B",
"&+	c #48852F",
"*+	c #46852F",
"=+	c #3E8324",
"-+	c #368118",
";+	c #328111",
">+	c #31820F",
",+	c #2F850D",
"'+	c #2D9310",
")+	c #2AA414",
"!+	c #25AF15",
"~+	c #20AF12",
"{+	c #20A40E",
"]+	c #269309",
"^+	c #696969",
"/+	c #868686",
"(+	c #9D9D9D",
"_+	c #449022",
":+	c #489D27",
"<+	c #49A028",
"[+	c #46A126",
"}+	c #41A023",
"|+	c #3BA020",
"1+	c #359E1C",
"2+	c #309E18",
"3+	c #2D9F16",
"4+	c #2BA415",
"5+	c #29AC16",
"6+	c #25B115",
"7+	c #1FB113",
"8+	c #1DAC0F",
"9+	c #20A20D",
"0+	c #6E6E6E",
"a+	c #7B7B7B",
"b+	c #7C7C7C",
"c+	c #727272",
"d+	c #7B7D7B",
"e+	c #6D766A",
"f+	c #4EAD2D",
"g+	c #4FB12F",
"h+	c #4CB22D",
"i+	c #45B12A",
"j+	c #3EB026",
"k+	c #36AF22",
"l+	c #30AE1E",
"m+	c #2CAE1A",
"n+	c #2AAF18",
"o+	c #28B117",
"p+	c #25B216",
"q+	c #1FB213",
"r+	c #1AB110",
"s+	c #1CAB0F",
"t+	c #239B0B",
"u+	c #969696",
"v+	c #616161",
"w+	c #929391",
"x+	c #81887E",
"y+	c #627B59",
"z+	c #498631",
"A+	c #4AA029",
"B+	c #50B12F",
"C+	c #51B630",
"D+	c #4DB62F",
"E+	c #47B62B",
"F+	c #3FB527",
"G+	c #37B323",
"H+	c #30B21F",
"I+	c #2CB21B",
"J+	c #2AB219",
"K+	c #28B218",
"L+	c #24B216",
"M+	c #1EB213",
"N+	c #1AB211",
"O+	c #1AAE0F",
"P+	c #219F0C",
"Q+	c #298606",
"R+	c #2E7002",
"S+	c #A6A6A6",
"T+	c #ACACAC",
"U+	c #6F6F6F",
"V+	c #A7A8A6",
"W+	c #939991",
"X+	c #6E8466",
"Y+	c #4D8837",
"Z+	c #4AA129",
"`+	c #50B22F",
" @	c #1AAF0F",
".@	c #1EA40C",
"+@	c #249207",
"@@	c #298004",
"#@	c #2C7302",
"$@	c #18B00F",
"%@	c #19AB0D",
"&@	c #1CA009",
"*@	c #229105",
"=@	c #2B7C07",
"-@	c #366A1A",
";@	c #656565",
">@	c #81877E",
",@	c #17B110",
"'@	c #15AF0E",
")@	c #15A90A",
"!@	c #1E9807",
"~@	c #2E8014",
"{@	c #436D32",
"]@	c #5F6F58",
"^@	c #5B5B5B",
"/@	c #707270",
"(@	c #646D60",
"_@	c #506E44",
":@	c #448329",
"<@	c #4AA128",
"[@	c #16AF0E",
"}@	c #17A90D",
"|@	c #249815",
"1@	c #398029",
"2@	c #537149",
"3@	c #6E766A",
"4@	c #7F7F7E",
"5@	c #6D6D6D",
"6@	c #70726F",
"7@	c #1AAB0E",
"8@	c #23A016",
"9@	c #378F2C",
"0@	c #4E7E46",
"a@	c #65765F",
"b@	c #777B75",
"c@	c #818081",
"d@	c #979797",
"e@	c #A3A3A3",
"f@	c #90918F",
"g@	c #80877D",
"h@	c #1FA40D",
"i@	c #2F911E",
"j@	c #498140",
"k@	c #637B5E",
"l@	c #747B72",
"m@	c #7E7F7D",
"n@	c #838183",
"o@	c #989898",
"p@	c #A4A4A4",
"q@	c #9FA09F",
"r@	c #91978F",
"s@	c #229F0E",
"t@	c #358623",
"u@	c #53764A",
"v@	c #6E786B",
"w@	c #7D7F7C",
"x@	c #828182",
"y@	c #848284",
"z@	c #8C8C8C",
"A@	c #9E9E9E",
"B@	c #9C9D9B",
"C@	c #949991",
"D@	c #718669",
"E@	c #4E8639",
"F@	c #499D27",
"G@	c #1DAB11",
"H@	c #299B18",
"I@	c #3D822E",
"J@	c #597351",
"K@	c #72786F",
"L@	c #5F5F5F",
"M@	c #959795",
"N@	c #929890",
"O@	c #718469",
"P@	c #4C7F37",
"Q@	c #41A024",
"R@	c #359E1D",
"S@	c #319E19",
"T@	c #1DAC10",
"U@	c #26A218",
"V@	c #39912D",
"W@	c #4F7F47",
"X@	c #667760",
"Y@	c #808080",
"Z@	c #969795",
"`@	c #939891",
" #	c #73836D",
".#	c #4F753F",
"+#	c #447A2B",
"@#	c #46822C",
"##	c #46842D",
"$#	c #45842C",
"%#	c #42842B",
"&#	c #40842A",
"*#	c #3D8327",
"=#	c #388221",
"-#	c #338518",
";#	c #2E9212",
">#	c #21A40F",
",#	c #30921F",
"'#	c #4A8240",
")#	c #747C72",
"!#	c #7E7E7D",
"~#	c #9D9D9C",
"{#	c #989C97",
"]#	c #7D8779",
"^#	c #617459",
"/#	c #58704D",
"(#	c #58724D",
"_#	c #58734D",
":#	c #57734D",
"<#	c #55724A",
"[#	c #4D6F40",
"}#	c #3F712B",
"|#	c #328517",
"1#	c #2B9F13",
"2#	c #239F0F",
"3#	c #368624",
"4#	c #54764A",
"5#	c #6E796B",
"6#	c #9A9B99",
"7#	c #858983",
"8#	c #6D7369",
"9#	c #6C7369",
"0#	c #6D7469",
"a#	c #6E746A",
"b#	c #6F766B",
"c#	c #70776C",
"d#	c #6D7669",
"e#	c #61705A",
"f#	c #4B6E3D",
"g#	c #36821E",
"h#	c #2B9D13",
"i#	c #23AB14",
"j#	c #2A9B18",
"k#	c #7A7A7A",
"l#	c #6E6E6D",
"m#	c #6A6A69",
"n#	c #6B6B6A",
"o#	c #6F706E",
"p#	c #777776",
"q#	c #7C7D7B",
"r#	c #797C77",
"s#	c #687362",
"t#	c #2C9C12",
"u#	c #28A714",
"v#	c #2AA11A",
"w#	c #3A912D",
"x#	c #5A595A",
"y#	c #525152",
"z#	c #4F4E4F",
"A#	c #515051",
"B#	c #595759",
"C#	c #696869",
"D#	c #5E6E56",
"E#	c #436D31",
"F#	c #338217",
"G#	c #2C9A12",
"H#	c #339221",
"I#	c #373737",
"J#	c #313131",
"K#	c #2C2B2C",
"L#	c #2B2A2B",
"M#	c #356B16",
"N#	c #2F820E",
"O#	c #2C9A13",
"P#	c #398625",
"Q#	c #316904",
"R#	c #2F800A",
"S#	c #2E9513",
"T#	c #31961B",
"U#	c #40812F",
"V#	c #5A7352",
"W#	c #307808",
"X#	c #328A18",
"Y#	c #3E8C2F",
"Z#	c #517F47",
"`#	c #667761",
" $	c #326207",
".$	c #356C15",
"+$	c #3E782A",
"@$	c #517D47",
"#$	c #657C60",
"$$	c #757C72",
"%$	c #446732",
"&$	c #546F49",
"*$	c #657660",
"=$	c #7E7F7E",
"                                                                                                            ",
"                                                                                                            ",
"                      . . . . . . . . . . . . . . . . . . . . . . . +                                       ",
"                    @ # $ $ $ $ $ $ $ $ $ $ $ $ $ $ $ $ $ $ $ $ $ $ % &                                     ",
"                  @ * = = - ; ; ; ; ; ; ; ; ; ; ; ; ; ; ; ; ; ; - = - > ,                                   ",
"                . # = ' ) ! ~ ~ ~ ~ ~ ~ ~ ~ ~ ~ ~ ~ ~ ~ ~ ~ ~ ~ ! ) { ] ^ /                                 ",
"                . $ = ) ( _ : : : : : : ^ & $ < [ [ [ [ [ [ < # % > ) ] ^ }                                 ",
"                . $ - ! _ | } 1 2 2 2 3 4 : 5 6 { { { { { { 7 8 _ % ] 9 ^ }                                 ",
"                . $ ; ~ : } 0 a b b b c d e f g h h h h h h i j k % 9 9 ^ }                                 ",
"                . $ ; ~ : 2 l m n n n o + > p q r r r r r r q f s % 9 9 ^ }                                 ",
"                . $ ; ~ ^ 4 t u v v v w x y 6 z j j j j j j A ! & B 9 9 ^ }                                 ",
"                . $ ; ~ & : 8 C D D D D E F z G j j j j j j A ; & B 9 9 ^ }                                 ",
"                . $ ; ~ $ 5 H r I I J J K L r r r r r r L K r H 5 $ 9 9 ^ }                                 ",
"                . $ ; ~ < 6 h M N N O O P L h h h h h h L P M h 6 < 9 9 ^ Q                                 ",
"                . $ ; ~ [ { L N h R S S g T U U U U U U T g V L { W 9 9 ^ Q       X Y                       ",
"                . $ ; ~ [ { L N R R S S g T U U U U U U T g N L { [ 9 9 ^ Q     Z `  ...                    ",
"                . $ ; ~ [ { I +.S S @.#.N $.h h h h h h $.N +.I { [ 9 9 ^ Q     %.&.*.=.-.                  ",
"                . $ ; ~ [ { I +.S S @.#.N $.h h h h h h $.N +.I { [ 9 9 ^ Q     ;.>.,.'.).!.                ",
"                . $ ; ~ [ { L N R R S S g T U U U U U U T g N L { [ 9 9 ^ Q     !.~.{.].^./.                ",
"                . $ ; ~ [ { L N R R S S (.T A U U U U A T g V L { W 9 _.^ Q     !.~.].:.<.[.}.              ",
"                . $ ; ~ [ { I |.+.+.1.1.2.3.4.4.4.4.4.4.5.S 6.7.8.9.0.a.b.c.    ;.~.d.e.f.g.h.              ",
"                . $ ; ~ [ { i.j.k.k.l.l.m.n.n.n.n.n.n.n.o.p.q.r.s.t.u.v.w.x.y.z.;.~.A.B.C.D.E.F.            ",
"                . $ ; ~ < 6 L G.H.n.n.n.n.n.n.n.n.n.n.H.I.J.K.L.M.N.O.O.P.Q.R.S.T.U.V.W.X.Y.Z.`.            ",
"                . $ ; ~ #  +.+L i.4.4.4.4.i.i.i.i.4.4.i.++@+L.#+$+%+&+*+=+-+;+>+,+'+)+!+~+{+]+E.}.          ",
"                . $ ; ~ & ^+/+7 { { { { { (+6 6 (+{ { { 8.s.M.$+_+:+<+[+}+|+1+2+3+4+5+6+7+8+9+]+h.          ",
"                . $ ; ~ 0++ x a+[ [ [ [ b+c+v v c+b+[ [ d+e+N.%+:+f+g+h+i+j+k+l+m+n+o+p+q+r+s+t+E.F.        ",
"                . $ ; ~ _ w W ] u+u+u+u+] [ v+v+[ ] u+u+w+x+y+z+A+B+C+D+E+F+G+H+I+J+K+L+M+N+O+P+Q+R+        ",
"                . $ ; ~ c+_ ] S+T+T+T+T+S+] U+U+] S+T+T+V+W+X+Y+Z+`+C+D+E+F+G+H+I+J+K+L+M+N+ @.@+@@@#@      ",
"                . $ ; ~ c+_ ] S+T+T+T+T+S+] U+U+] S+T+T+V+W+X+Y+Z+`+C+D+E+F+G+H+I+J+K+L+M+N+$@%@&@*@=@-@    ",
"                . $ ; ~ _ ;@W ] u+u+u+u+] W v+v+W ] u+u+w+>@y+z+Z+`+C+D+E+F+G+H+I+J+K+L+M+N+,@'@)@!@~@{@]@  ",
"                . $ - ! B ^@;@_ B B B B _ w t t w _ B B /@(@_@:@<@`+C+D+E+F+G+H+I+J+K+L+M+N+,@[@}@|@1@2@3@4@",
"                . $ = 7 /+B _ B B B B B c+_ 5@5@_ c+B B 6@(@_@:@<@`+C+D+E+F+G+H+I+J+K+L+M+N+$@7@8@9@0@a@b@c@",
"                . $ d@e@6 ! ~ ! - - ! ~ ~ ! ; ; ! ~ ~ ! f@g@y+z+Z+`+C+D+E+F+G+H+I+J+K+L+M+N+ @h@i@j@k@l@m@n@",
"                . $ o@p@(+= = 6 e@e@6 = = 6 e@e@6 = = 6 q@r@X+Y+Z+B+C+D+E+F+G+H+I+J+K+L+M+N+O+s@t@u@v@w@x@y@",
"                . $ u+C z@b+b+z@A@A@z@b+b+z@A@A@z@b+b+z@B@C@D@E@F@f+g+h+i+j+k+l+m+n+o+p+q+r+G@H@I@J@K@[ y@  ",
"                . $ - u+b+L@L@b+u+u+b+L@L@b+u+u+b+L@L@b+M@N@O@P@_+:+<+[+Q@|+R@S@3+4+5+6+7+T@U@V@W@X@b@Y@    ",
"                . $ - u+b+L@L@b+u+u+b+L@L@b+u+u+b+L@L@b+Z@`@ #.#+#@###$#%#&#*#=#-#;#)+!+~+>#,#'#k@)#!#x@    ",
"                . $ u+C z@b+b+z@A@A@z@b+b+z@A@A@z@b+b+z@~#{#]#^#/#(#_#_#:#:#<#[#}#|#1#W.X.2#3#4#5#w@x@      ",
"                + % = ' 6 = = 6 e@e@6 = = 6 e@e@6 = = 6 D 6#7#K@8#9#0#a#b#c#d#e#f#g#h#B.i#j#I@J@K@[ y@      ",
"                  & > ] ! ~ ~ ! - - ! ~ ~ ! - - ! ~ ~ ! ]  +k#l#m#m#n#o#p#q#r#s#[#g#t#u#v#w#W@X@b@Y@        ",
"                    , ^ ^ ^ ^ ^ 5@5@^ ^ ^ ^ 5@5@^ ^ ^ ^ x w x#y#z#z#A#B#C#    D#E#F#G#1#H#'#k@)#!#x@        ",
"                      / } } } } } } } } } } } } } } } } c I#J#K#L#L#K#          M#N#{.O#P#4#5#w@x@          ",
"                                                                                Q#R#S#T#U#V#K@[ y@          ",
"                                                                                Y W#X#Y#Z#`#b@Y@            ",
"                                                                                 $.$+$@$#$$$!#x@            ",
"                                                                                  %$&$*$$$=$x@              ",
"                                                                                  ]@3@b@m@x@y@              ",
"                                                                                    4@c@n@y@                "};
