/* XPM */
static char * cancel_sync_hidpi_xpm[] = {
"54 48 402 2",
"  	c None",
". 	c #6B0000",
"+ 	c #E30000",
"@ 	c #710000",
"# 	c #6D0000",
"$ 	c #DA0000",
"% 	c #B70101",
"& 	c #910101",
"* 	c #7D0101",
"= 	c #720101",
"- 	c #02167D",
"; 	c #07167D",
"> 	c #36106E",
", 	c #DF0008",
"' 	c #DE0000",
") 	c #C90101",
"! 	c #AB0202",
"~ 	c #910202",
"{ 	c #700000",
"] 	c #023277",
"^ 	c #022F8D",
"/ 	c #0F299C",
"( 	c #282198",
"_ 	c #55157A",
": 	c #91064B",
"< 	c #C50023",
"[ 	c #DD000A",
"} 	c #E00000",
"| 	c #D50101",
"1 	c #C20202",
"2 	c #790000",
"3 	c #0257A0",
"4 	c #0652AF",
"5 	c #2640B5",
"6 	c #512BA6",
"7 	c #7F177D",
"8 	c #AA0647",
"9 	c #CD001E",
"0 	c #DE0008",
"a 	c #E20000",
"b 	c #DD0000",
"c 	c #024581",
"d 	c #025EA5",
"e 	c #0E6FC2",
"f 	c #266BCC",
"g 	c #4B52C3",
"h 	c #7C31A7",
"i 	c #A81777",
"j 	c #C7063F",
"k 	c #D80014",
"l 	c #E10004",
"m 	c #025FA5",
"n 	c #066DBE",
"o 	c #2675D2",
"p 	c #506CD2",
"q 	c #7C51BB",
"r 	c #A52E95",
"s 	c #C71365",
"t 	c #DA0431",
"u 	c #E10008",
"v 	c #E30001",
"w 	c #E30002",
"x 	c #E30003",
"y 	c #E30004",
"z 	c #0E72C3",
"A 	c #4B6BD1",
"B 	c #7C57BE",
"C 	c #A83D9B",
"D 	c #C72070",
"E 	c #D80A45",
"F 	c #E1021E",
"G 	c #E3000A",
"H 	c #DE042D",
"I 	c #DB0533",
"J 	c #D7042E",
"K 	c #DD0101",
"L 	c #506FD3",
"M 	c #A53A9C",
"N 	c #DA0D42",
"O 	c #E1021F",
"P 	c #D80945",
"Q 	c #CA1161",
"R 	c #B9136B",
"S 	c #A20F63",
"T 	c #930101",
"U 	c #AD0202",
"V 	c #D20101",
"W 	c #E10000",
"X 	c #C50021",
"Y 	c #980033",
"Z 	c #034782",
"` 	c #0262A7",
" .	c #0E76C6",
"..	c #267AD5",
"+.	c #4B6ED2",
"@.	c #7C58BF",
"#.	c #D80B46",
"$.	c #DA0841",
"%.	c #C7146C",
"&.	c #A71D8D",
"*.	c #821E92",
"=.	c #5D167C",
"-.	c #730101",
";.	c #830202",
">.	c #980303",
",.	c #AD0303",
"'.	c #BF0101",
").	c #CE0000",
"!.	c #DB0000",
"~.	c #CD001C",
"{.	c #AE002C",
"].	c #8E0136",
"^.	c #6A2052",
"/.	c #334883",
"(.	c #0862A7",
"_.	c #0678C6",
":.	c #2687DE",
"<.	c #5082DE",
"[.	c #7C64C5",
"}.	c #A53E9E",
"|.	c #C72170",
"1.	c #C7146D",
"2.	c #A81E91",
"3.	c #7C25A9",
"4.	c #4C23A4",
"5.	c #281884",
"6.	c #13095E",
"7.	c #750101",
"8.	c #810202",
"9.	c #910303",
"0.	c #9B0303",
"a.	c #A40202",
"b.	c #B70000",
"c.	c #D00000",
"d.	c #DF0000",
"e.	c #D90011",
"f.	c #C9001F",
"g.	c #B0022D",
"h.	c #892857",
"i.	c #535796",
"j.	c #2C78C6",
"k.	c #2A8ADF",
"l.	c #4B8FE7",
"m.	c #7C81D6",
"n.	c #A85DAB",
"o.	c #C72F76",
"p.	c #D80D47",
"q.	c #C71265",
"r.	c #A51E92",
"s.	c #7C27AF",
"t.	c #502ABA",
"u.	c #2525AC",
"v.	c #061A8B",
"w.	c #020E69",
"x.	c #770101",
"y.	c #7F0202",
"z.	c #890303",
"A.	c #920404",
"B.	c #8D0202",
"C.	c #9E0000",
"D.	c #C20000",
"E.	c #DC0000",
"F.	c #DA000F",
"G.	c #C90322",
"H.	c #A82B55",
"I.	c #7E5C9C",
"J.	c #5981D2",
"K.	c #588FE6",
"L.	c #7C89DC",
"M.	c #A573BB",
"N.	c #C74F87",
"O.	c #DA244C",
"P.	c #E10420",
"Q.	c #C7063E",
"R.	c #A81676",
"S.	c #7C24A5",
"T.	c #4B2BBE",
"U.	c #252CC3",
"V.	c #0D28B6",
"W.	c #01209E",
"X.	c #011885",
"Y.	c #021170",
"Z.	c #7C0101",
"`.	c #910404",
" +	c #940404",
".+	c #8D0303",
"++	c #820202",
"@+	c #890000",
"#+	c #B10000",
"$+	c #D90000",
"%+	c #D80316",
"&+	c #C72A4E",
"*+	c #A85A96",
"=+	c #867ECB",
"-+	c #8685D6",
";+	c #A873B9",
">+	c #C7558B",
",+	c #D8355B",
"'+	c #E1162A",
")+	c #E30104",
"!+	c #7F167C",
"~+	c #5124A8",
"{+	c #252BBF",
"]+	c #042DC5",
"^+	c #012BC0",
"/+	c #0127B3",
"(+	c #01219E",
"_+	c #01167F",
":+	c #710101",
"<+	c #7E0202",
"[+	c #7E0101",
"}+	c #7A0000",
"|+	c #E1020A",
"1+	c #DA233F",
"2+	c #C74E80",
"3+	c #AF6CAE",
"4+	c #AF6EB1",
"5+	c #DA3255",
"6+	c #E1172B",
"7+	c #E3060F",
"8+	c #54157A",
"9+	c #27209D",
"0+	c #0D27B3",
"a+	c #002DC5",
"b+	c #002BC0",
"c+	c #0124AA",
"d+	c #011884",
"e+	c #02095D",
"f+	c #E30103",
"g+	c #E11629",
"h+	c #D83559",
"i+	c #CE4A7A",
"j+	c #D8355A",
"k+	c #E30205",
"l+	c #34106D",
"m+	c #071885",
"n+	c #01209D",
"o+	c #0028B6",
"p+	c #002CC3",
"q+	c #0125AD",
"r+	c #DF213B",
"s+	c #011A8B",
"t+	c #0126AF",
"u+	c #011886",
"v+	c #8C0303",
"w+	c #02095E",
"x+	c #002CC1",
"y+	c #0125AC",
"z+	c #0029BA",
"A+	c #0125AB",
"B+	c #0126B0",
"C+	c #0124A8",
"D+	c #0123A6",
"E+	c #8F0303",
"F+	c #960404",
"G+	c #990505",
"H+	c #980404",
"I+	c #8E0303",
"J+	c #900303",
"K+	c #9A0505",
"L+	c #E30100",
"M+	c #E40101",
"N+	c #9B0505",
"O+	c #7F0101",
"P+	c #E40100",
"Q+	c #E50302",
"R+	c #E70604",
"S+	c #E70504",
"T+	c #031170",
"U+	c #990404",
"V+	c #930404",
"W+	c #8E0101",
"X+	c #A80000",
"Y+	c #CB0000",
"Z+	c #E80705",
"`+	c #EC0C08",
" @	c #EA0C08",
".@	c #E40604",
"+@	c #E10101",
"@@	c #36085A",
"#@	c #11167F",
"$@	c #0127B1",
"%@	c #0028B7",
"&@	c #9C0404",
"*@	c #9D0303",
"=@	c #A50202",
"-@	c #B90000",
";@	c #D10000",
">@	c #ED0D09",
",@	c #EF110C",
"'@	c #E7100B",
")@	c #D90805",
"!@	c #D40201",
"~@	c #D70013",
"{@	c #A20032",
"]@	c #5D0857",
"^@	c #271883",
"/@	c #0524A8",
"(@	c #0128B7",
"_@	c #9D0505",
":@	c #A40404",
"<@	c #AF0303",
"[@	c #E20201",
"}@	c #E50604",
"|@	c #EB0D09",
"1@	c #EF120D",
"2@	c #EC130E",
"3@	c #DD110C",
"4@	c #C50906",
"5@	c #BF0201",
"6@	c #DB000E",
"7@	c #B90029",
"8@	c #820750",
"9@	c #4C1781",
"0@	c #2524A8",
"a@	c #0D26B0",
"b@	c #930303",
"c@	c #B30404",
"d@	c #C30202",
"e@	c #D90302",
"f@	c #DE0906",
"g@	c #E8110C",
"h@	c #EA130E",
"i@	c #DF120D",
"j@	c #CA0F0A",
"k@	c #AF0805",
"l@	c #A90201",
"m@	c #BC0000",
"n@	c #DE0009",
"o@	c #CA0020",
"p@	c #A70649",
"q@	c #7C177E",
"r@	c #5023A5",
"s@	c #990303",
"t@	c #B10303",
"u@	c #C50202",
"v@	c #D40101",
"w@	c #DE0101",
"x@	c #D60202",
"y@	c #CD0504",
"z@	c #D20B08",
"A@	c #DE110C",
"B@	c #DB120D",
"C@	c #C70F0A",
"D@	c #AE0A06",
"E@	c #990503",
"F@	c #940101",
"G@	c #A30000",
"H@	c #BA0000",
"I@	c #7C229E",
"J@	c #4C22A2",
"K@	c #CE0504",
"L@	c #CA0907",
"M@	c #CB0D0A",
"N@	c #CE0F0B",
"O@	c #C60E0A",
"P@	c #920503",
"Q@	c #AA0000",
"R@	c #C71264",
"S@	c #A71C8A",
"T@	c #CB0504",
"U@	c #C90907",
"V@	c #CE0D0A",
"W@	c #CA0E0A",
"X@	c #BC0C08",
"Y@	c #AB0906",
"Z@	c #D50202",
"`@	c #C90D09",
" #	c #C10D09",
".#	c #AA0906",
"+#	c #910503",
"@#	c #D30101",
"##	c #C70303",
"$#	c #C50806",
"%#	c #CC0D09",
"&#	c #B60807",
"*#	c #BF0D09",
"=#	c #CB1161",
"-#	c #D90944",
";#	c #9E0403",
">#	c #A00605",
",#	c #A50806",
"'#	c #A40805",
")#	c #360858",
"!#	c #5C1477",
"~#	c #821C8C",
"{#	c #A81B85",
"]#	c #8B0302",
"^#	c #880303",
"/#	c #840302",
"(#	c #030044",
"_#	c #110553",
":#	c #281172",
"<#	c #4D1B8B",
"[#	c #020043",
"}#	c #03024B",
"|#	c #060A5F",
"1#	c #281272",
"2#	c #5D1478",
"3#	c #020145",
"4#	c #03034D",
"5#	c #130655",
"                                                                                                            ",
"                                                                                                            ",
"                                              . . . . . .                                                   ",
"                    + +                   . . . . . . . .                           + +                     ",
"                + + + + + +       @ # . . . . . .                               + + + + + +                 ",
"                + + + + + + $ % & * = # . . .                       - ; >     , + + + + + +                 ",
"              + + + + + + + ' ) ! ~ * { .                       ] ^ / ( _ : < [ + + + + + + +               ",
"              + + + + + + + } | 1 ! & 2                         3 4 5 6 7 8 9 0 + + + + + + +               ",
"                + + + + + + a b | ) %                       c d e f g h i j k l + + + + + +                 ",
"                + + + + + + + a } ' $                       m n o p q r s t u v + w x y x v                 ",
"                  $ ' } a + + + + + + +                 c m z o A B C D E F w + G F H I J                   ",
"                  % ) | K a + + + + + + ,               m n o L B M D N O G v x O P Q R S                   ",
"                  T U 1 V b W + + + + + [ X Y       Z `  ...+.@.C D #.O x v G O $.%.&.*.=.                  ",
"                -.;.>.,.'.).!.W + + + + 0 ~.{.].^./.(._.:.<.[.}.|.N O G + w F P 1.2.3.4.5.6.                ",
"                7.8.9.0.a.b.c.d.+ + + + l e.f.g.h.i.j.k.l.m.n.o.p.O x + v u t q.r.s.t.u.v.w.                ",
"              x.y.z.A.9.B.C.D.E.+ + + + v l F.G.H.I.J.K.L.M.N.O.P.G + + l k Q.R.S.T.U.V.W.X.Y.              ",
"              Z.z.`. +.+++@+#+$++ + + + + + l %+&+*+=+-+;+>+,+'+)++ + + 0 9 8 !+~+{+]+^+/+(+_+              ",
"            :+<+.+ +`.z.[+}+    + + + + + + v |+1+2+3+4+>+5+6+7+v + + + [ < : 8+9+0+^+a+b+c+d+e+            ",
"            :+y..+`.z.y.x.          + + + + + f+g+h+i+i+j+6+k+v + + + + ,     l+m+n+o+a+p+q+X.e+            ",
"            :+y..+.+8.7.            + + + + + v 7+g+r+r+g+7+v + + + + +         w.s+t+p+p+q+u+e+            ",
"            :+y.v+v+y.=               + + + + + v f+k+k+f+v + + + + +           w+X.c+b+x+y+X.e+            ",
"            :+y.v+v+y.:+                + + + + + + + + + + + + + +               _+(+/+z+A+X.e+            ",
"            :+y.v+v+y.:+                + + + + + + + + + + + + + +               Y.X.n+B+C+X.e+            ",
"            :+y.v+v+y.=                 + + + + + + + + + + + + + +                 w.s+C+D+X.e+            ",
"            :+y..+.+8.7.                + + + + + + + + + + + + + +                 w+X.D+D+X.e+            ",
"            :+y..+`.z.y.x.              + + + + + + + + + + + + + +                 e+X.D+D+X.e+            ",
"            :+y.E+F+A.z.Z.              + + + + + + + + + + + + + +                 e+X.D+D+X.e+            ",
"            :+y.E+G+H+I+y.=           + + + + + + + + + + + + + + + +               w+X.D+D+X.e+            ",
"            :+y.J+K+K+`.8.7.        + + + + + + + L+M+M+L++ + + + + + +             w.s+C+D+X.e+            ",
"            :+y.J+K+N+ +z.y.O+    d.+ + + + + + P+Q+R+S+Q+L++ + + + + +           T+X.n+B+C+X.e+            ",
"            :+<+I+U+N+U+V+.+W+X+Y+' + + + + + P+Q+Z+`+ @.@+@W + + + + + + v     @@#@W.$@%@C+d+e+            ",
"              Z.z.V+U+N+&@*@=@-@;@d.+ + + + L+Q+Z+>@,@'@)@!@!.W + + + + + v ~@{@]@^@/@(@$@W._+              ",
"              x.y.z. +_@:@<@'.).!.W + + + a [@}@|@1@2@3@4@5@).E.W + + + + + 6@7@8@9@0@a@n+X.Y.              ",
"                7.8.b@:@c@d@V b W + + + a K e@f@g@h@i@j@k@l@m@).!.W + + + + n@o@p@q@r@0@v.w.                ",
"                -.;.s@t@u@v@K a + + + a w@x@y@z@A@B@C@D@E@F@G@H@;@d.+ + + + l k j R.I@J@5.6.                ",
"                  T U d@v@' a + + + a K x@K@L@M@N@O@D@P@      Q@Y+' + + + + v u t R@S@*.=.                  ",
"                  % ) | K a + + + a w@x@T@U@V@W@X@Y@              d.+ + + + + w F P Q R S                   ",
"                  $ ' } a + + + a K Z@K@U@`@W@ #.#+#                v x y x w v G F H I J                   ",
"                + + + + + + + W b @###$#%#W@X@.#                      J I H F G v w x y x v                 ",
"                + + + + + + W !.).5@c@&# #*#.#+#                      S R =#-#F w + + + + +                 ",
"              + + + + + + + d.;@-@=@;#>#,#'#                        )#!#~#{#=#H x + + + + + +               ",
"              + + + + + + + ' Y+X+W+]#v+^#/#                      (#_#:#<#~#R I y + + + + + +               ",
"                + + + + + + d.    O+Z.Z.                      [#[#[#}#|#1#2#S J x + + + + +                 ",
"                + + + + + +                               [#[#[#[#[#3#4#5#      v + + + + +                 ",
"                    + +                           [#[#[#[#[#[#[#[#                  + +                     ",
"                                                  [#[#[#[#[#[#                                              ",
"                                                                                                            ",
"                                                                                                            "};
