/* XPM */
static char * datebook_hidpi_xpm[] = {
"80 80 252 2",
"  	c None",
". 	c #5F5F5F",
"+ 	c #5A5A5A",
"@ 	c #505050",
"# 	c #444444",
"$ 	c #383838",
"% 	c #2D2D2D",
"& 	c #232323",
"* 	c #1E1E1E",
"= 	c #202020",
"- 	c #262626",
"; 	c #2E2E2E",
"> 	c #424242",
", 	c #4E4E4E",
"' 	c #4D4D4D",
") 	c #454545",
"! 	c #3A3A3A",
"~ 	c #2F2F2F",
"{ 	c #1D1D1D",
"] 	c #191919",
"^ 	c #1B1B1B",
"/ 	c #272727",
"( 	c #303030",
"_ 	c #070707",
": 	c #040404",
"< 	c #030303",
"[ 	c #0F0F0F",
"} 	c #242424",
"| 	c #313131",
"1 	c #343434",
"2 	c #141414",
"3 	c #111111",
"4 	c #121212",
"5 	c #151515",
"6 	c #1A1A1A",
"7 	c #181818",
"8 	c #373737",
"9 	c #4F4F4F",
"0 	c #050505",
"a 	c #060606",
"b 	c #0D0D0D",
"c 	c #161616",
"d 	c #131313",
"e 	c #101010",
"f 	c #0E0E0E",
"g 	c #0C0C0C",
"h 	c #020202",
"i 	c #434343",
"j 	c #4A4A4A",
"k 	c #414141",
"l 	c #080808",
"m 	c #222222",
"n 	c #252525",
"o 	c #1F1F1F",
"p 	c #1C1C1C",
"q 	c #090909",
"r 	c #282828",
"s 	c #2A2A2A",
"t 	c #393939",
"u 	c #292929",
"v 	c #323232",
"w 	c #333333",
"x 	c #353535",
"y 	c #3B3B3B",
"z 	c #3E3E3E",
"A 	c #3F3F3F",
"B 	c #3C3C3C",
"C 	c #212121",
"D 	c #2C2C2C",
"E 	c #474747",
"F 	c #4C4C4C",
"G 	c #515151",
"H 	c #535353",
"I 	c #545454",
"J 	c #565656",
"K 	c #585858",
"L 	c #595959",
"M 	c #575757",
"N 	c #525252",
"O 	c #3D3D3D",
"P 	c #484848",
"Q 	c #555555",
"R 	c #5C5C5C",
"S 	c #5E5E5E",
"T 	c #606060",
"U 	c #636363",
"V 	c #6B6B6B",
"W 	c #767676",
"X 	c #818181",
"Y 	c #8B8B8B",
"Z 	c #939393",
"` 	c #9A9A9A",
" .	c #9D9D9D",
"..	c #999999",
"+.	c #8E8E8E",
"@.	c #7A7A7A",
"#.	c #0A0A0A",
"$.	c #626262",
"%.	c #616161",
"&.	c #646464",
"*.	c #676767",
"=.	c #6F6F6F",
"-.	c #727272",
";.	c #757575",
">.	c #868686",
",.	c #979797",
"'.	c #A9A9A9",
").	c #B8B8B8",
"!.	c #C6C6C6",
"~.	c #D1D1D1",
"{.	c #D7D7D7",
"].	c #D4D4D4",
"^.	c #C7C7C7",
"/.	c #AFAFAF",
"(.	c #909090",
"_.	c #6C6C6C",
":.	c #171717",
"<.	c #2B2B2B",
"[.	c #494949",
"}.	c #363636",
"|.	c #6D6D6D",
"1.	c #6A6A6A",
"2.	c #666666",
"3.	c #656565",
"4.	c #686868",
"5.	c #707070",
"6.	c #7B7B7B",
"7.	c #888888",
"8.	c #959595",
"9.	c #A0A0A0",
"0.	c #A7A7A7",
"a.	c #AAAAAA",
"b.	c #B2B2B2",
"c.	c #BFBFBF",
"d.	c #CCCCCC",
"e.	c #D9D9D9",
"f.	c #E5E5E5",
"g.	c #EFEFEF",
"h.	c #F4F4F4",
"i.	c #F3F3F3",
"j.	c #E8E8E8",
"k.	c #D5D5D5",
"l.	c #B9B9B9",
"m.	c #969696",
"n.	c #0B0B0B",
"o.	c #6E6E6E",
"p.	c #747474",
"q.	c #7D7D7D",
"r.	c #9B9B9B",
"s.	c #AEAEAE",
"t.	c #C0C0C0",
"u.	c #D0D0D0",
"v.	c #D8D8D8",
"w.	c #DADADA",
"x.	c #DDDDDD",
"y.	c #E2E2E2",
"z.	c #EEEEEE",
"A.	c #F9F9F9",
"B.	c #FCFCFC",
"C.	c #FAFAFA",
"D.	c #F5F5F5",
"E.	c #EBEBEB",
"F.	c #BBBBBB",
"G.	c #696969",
"H.	c #8A8A8A",
"I.	c #A8A8A8",
"J.	c #B5B5B5",
"K.	c #C3C3C3",
"L.	c #DFDFDF",
"M.	c #F1F1F1",
"N.	c #F6F6F6",
"O.	c #F7F7F7",
"P.	c #FBFBFB",
"Q.	c #D2D2D2",
"R.	c #B0B0B0",
"S.	c #848484",
"T.	c #717171",
"U.	c #878787",
"V.	c #C5C5C5",
"W.	c #DEDEDE",
"X.	c #F0F0F0",
"Y.	c #F8F8F8",
"Z.	c #F2F2F2",
"`.	c #E7E7E7",
" +	c #777777",
".+	c #929292",
"++	c #A2A2A2",
"@+	c #B1B1B1",
"#+	c #E1E1E1",
"$+	c #EDEDED",
"%+	c #E0E0E0",
"&+	c #CECECE",
"*+	c #828282",
"=+	c #464646",
"-+	c #8C8C8C",
";+	c #A6A6A6",
">+	c #BDBDBD",
",+	c #CFCFCF",
"'+	c #DBDBDB",
")+	c #E3E3E3",
"!+	c #E9E9E9",
"~+	c #ECECEC",
"{+	c #CBCBCB",
"]+	c #BABABA",
"^+	c #ACACAC",
"/+	c #A3A3A3",
"(+	c #4B4B4B",
"_+	c #787878",
":+	c #898989",
"<+	c #9E9E9E",
"[+	c #CACACA",
"}+	c #EAEAEA",
"|+	c #E4E4E4",
"1+	c #DCDCDC",
"2+	c #A1A1A1",
"3+	c #737373",
"4+	c #7C7C7C",
"5+	c #858585",
"6+	c #C8C8C8",
"7+	c #838383",
"8+	c #989898",
"9+	c #B7B7B7",
"0+	c #9C9C9C",
"a+	c #8D8D8D",
"b+	c #A4A4A4",
"c+	c #7F7F7F",
"d+	c #404040",
"e+	c #E6E6E6",
"f+	c #8F8F8F",
"g+	c #C9C9C9",
"h+	c #C4C4C4",
"i+	c #ADADAD",
"j+	c #949494",
"k+	c #A5A5A5",
"l+	c #7E7E7E",
"m+	c #D3D3D3",
"n+	c #BCBCBC",
"o+	c #5B5B5B",
"p+	c #C1C1C1",
"q+	c #C2C2C2",
"r+	c #B3B3B3",
"s+	c #9F9F9F",
"t+	c #B6B6B6",
"u+	c #ABABAB",
"v+	c #CDCDCD",
"w+	c #5D5D5D",
"x+	c #919191",
"y+	c #B4B4B4",
"z+	c #D6D6D6",
"A+	c #BEBEBE",
"B+	c #797979",
"C+	c #808080",
"                                                                . + @ # $ % & * = - ; $ # @ + .                                                                 ",
"                                                              > , ' ) ! ~ - { ] ^ = / ( ! ) ' , >                                                               ",
"                                                      _ : < [ } | 1 ; / = ] 2 3 4 5 6 = / ; 1 | } [ < < 7 8 9                                                   ",
"                                                  0 a 0 : < 0 b 2 c 2 4 3 4 d d e f f [ 3 2 c 2 g : h < d ~ i j k                                               ",
"                                              h h < : a l g e d 5 c 7 6 * m n } m o p 6 c d e b q a : < g o % ( r s t                                           ",
"                                          h h h h < 0 g c = u ~ v w x $ y z A z B y ! 8 v ; u } { 5 f _ a g d d 2 C ( x                                         ",
"                                      h h h < _ g 4 7 C D 8 k E j F , G H I I I I J K + + + L M N j O ; * e q a q 5 o C ] g                                     ",
"                                  4 h h h < _ 2 C D x A P 9 Q K L + R S . T T T U V W X Y Z `  ...+.@.T i r 7 3 #.q g b q a [                                   ",
"                              F 1 5 < : q e 6 s t ) 9 K T U U $.%.%.&.*.V =.-.;.@.>.,.'.).!.~.{.].^./.(._.j v & :.f q _ _ _ 4 <.A                               ",
"                            [.k % 4 a b ] / }.# G + %.*._.|.1.2.3.4.5.6.7.8.9.0.a.b.c.d.e.f.g.h.i.j.k.l.m.-.N t s C :.e n.#.d - }.O                             ",
"                        | w w % * e d = ~ A 9 R 3.1.V _.=.=.o.=.p.q.Y r.s.t.u.v.w.x.y.j.z.h.A.B.C.D.E.v.F.,.5.' y v / p 5 3 d p / D % D                         ",
"                        r } { 5 3 6 s ! [.J T G.=.5._.V o.p.q.H.` I.J.K.~.L.E.M.i.h.D.N.O.A.P.P.P.A.h.j.Q.R.S.+ ) z x <.& p :.5 :.p C n                         ",
"                    | r = c f b ] % k N T 2.G._.5.T.=.T.@.U.../.V.].W.f.E.X.h.O.A.C.C.C.C.C.Y.O.D.Z.g.`.{.l.Y S [.# A $ ( r o 7 5 c 6 o - <.                    ",
"                    w } c n.g p ~ i Q U _.|.1.G.|. +S..+++@+t.u.#+$+i.O.Y.Y.O.O.A.C.P.P.C.N.g.`.%+e.].&+K.a.*++ [.=+i A t | r = { ^ 6 { m u                     ",
"                  [.w { f g 6 ~ ) M &._.o.|.1._. +-+;+>+,+'+)+!+g.h.Y.P.P.C.A.A.A.A.Y.O.h.~+x.{+]+^+/+ .8.S.G.H (+[.) k O $ ( u } m = o = - (                   ",
"                F k % 5 b p ~ # J $.G.V _.=._+:+<+J.[+x.}+i.N.N.N.O.A.C.P.P.P.C.A.h.~+|+1+u.>+0.(.q.T.V 3.S J Q + K ' i A y x ; s / n & = } <.(                 ",
"                1 % * e 7 ; # Q %.*.1.|.p.*+,.@+{+x.!+X.N.A.C.C.A.A.A.C.C.C.Y.N.M.f.Q.c.R.2+.+X =.U . T $.3.G.3+4+ +U ' > B 8 v % s r - } m & &                 ",
"              4 5 4 e 7 s k I T *._.p.5+r.s.t.].j.h.Y.A.C.C.C.C.C.C.C.Y.D.X.j.%+v.6+R.,.7+;.o.*.$.U |.4+-+8+2+'.s.++S.%.[.O 8 1 ~ D s s r n = p 7               ",
"            e 0 : _ d r O G $._.-.q.(.^+6+w.|+~+D.C.P.P.C.C.C.C.C.A.N.M.j.'+6+9+a.0+-+6.|.*.4._.-.4+a+b+]+{+k.'+w.[+I.c++ d+8 x | % <.<.D <./ m { ^             ",
"            = #.a 3 & $ ' . 5.X .+b+).,+e+i.O.Y.A.C.C.C.C.C.C.Y.h.z.e+'+,+>+;+f+c+ +p.5.4.2.=.7+` ^+]+[+'+!+M.D.Z.|+g+++p.j $ x | % <.D ; ~ ; s n -             ",
"          k u e n.* 1 (+$.p.U.9.]+&+x.}+h.A.P.P.C.C.C.C.A.Y.N.M.`.e.g+l.a.r.-+c+_+@.c+q.3+_.W 8+>+k.%+j.g.D.A.P.A.Z.y.h+m.3.=+8 ( % s s % ( v | % ~ }.          ",
"        ) y / e 3 u ) U c+,.i+h+w.}+i.O.A.C.C.C.C.C.C.Y.h.z.`.x.,+c.^+` -+5+5+Y j+9.I.k+8.*+l+r.h+#+X.O.A.C.P.P.C.A.Z.L.>+.+*.> | % s r u ~ x }.1 1 8 !         ",
"        ( u ^ [ 6 1 H W ..).~.|+g.N.A.C.C.C.C.C.C.A.O.M.j.'+d.>+@+k+` (.H.-+,.0.l.g+m+,+n+2+7.f+R.Q.E.Y.P.P.B.B.P.C.Y.z.w.9+S., w ; s n } <.1 $ $ }.1 1         ",
"        2 e f 7 s k o+@.0+p+#+i.A.P.C.A.A.Y.A.C.Y.i.!+W.~.q+b.b+r.8+8+ .b+i+]+g+v.f.~+!+e.n+,.7+8.F.W.Z.A.P.B.B.P.A.D.$+1+n+7.G 1 ~ s } = - | $ ! $ 1 (         ",
"        < < f } ! F S 5.Y r+w.M.A.P.C.A.O.N.N.N.M.f.u.>+@+'./+s+ .9.'.t+V.Q.1+e+z.i.h.i.}+Q.u+U.S.b+v+j.D.A.Y.N.D.X.j.e.K.++W j 1 ( <.n o m <.x y y 8 w         ",
"      h h < d % ) I w+&.p.8+p+L.M.A.P.C.O.i.z.`.x.{+b.s+8+.. .k+/.l.V.Q.L.}+M.N.Y.Y.O.O.h.|+!.++7.x+y+z+~+Z.E.y.'+m+6+J.r.4+R k 1 ( <.- = o n | y A B t !       ",
"      h < a ] 1 (+K R w+&.@.0+p+#+h.C.C.D.~+W.v+F.I....+Z m.0+^+p+m+L.!+X.D.Y.A.C.C.A.A.Y.M.%+q+..*+j+F.w.#+~.F.u+s+j+5+3+&.o+H E ! ( r m * = % y > k A z       ",
"    < h 0 e & y @ + o++ R U _+s+6+|+Z.Z.j.v.K.i+8+f+x+,.` `  .^+V.'+~+D.Y.Y.Y.Y.A.C.C.C.C.Y.z.].0.l+@.r.n+q+i+(._+4.T . 3._+:+:+p.M O <.m { p u $ k # > z B     ",
"    5 a q 6 ; i I o+o+L o+w+*.*+;+6+L.#+&+J.s+f+:+x+9.a.u+k+s+k+l.m+!+N.A.Y.O.O.Y.C.C.A.Y.D.~+].u+X o.6.(.Z 5+3+4.U 2.5.S./+>+A+/+4+I v C p ] m v z ) ) A !     ",
"  Q ( 4 b m 8 j M R + L R S U o.5+k+c.q+i+.+*+5+,.^+>+!.h+l.I.9.a.t.w.~+D.O.N.N.Y.C.A.D.$+|+z+c.<+4+4.&.4._.=.B+:+8.<+0.J.d.%+%+g+/+T.z C ^ :.{ <.y E P > B     ",
"B+&.d+^ e - B ' L o+L L w+T %.3.o.*+8.8+-+X S...J.v+1+y.L.u.).b+<+u+K.'+$+D.D.D.N.N.Z.j.z+K./.` *+5.*.$.. 3._+8.y+6+Q.e.%+!+M.M.|+q+Y F } ^ 5 7 - ! [.' E k     ",
";.&.# o 4 u A 9 K + K L w+T %.$.3.1.T.W 4+Y /+>+].f.X.h.X.y.{+@+0+..a.!.#+X.i.M.~+f.'+{+J.0+>.W o.T. +3+1.o.7.^+&+|+g.h.N.Y.A.A.M.].r.M s ^ 2 5 C 8 [.9 F E     ",
"1.R A p d <.k 9 Q M M L R . %.$.U &.*.o.C+++V.x.!+X.i.h.Z.j.z+>+9.+.8.R.,+|+}+f.z+h+b.9.+.C+ +W q.Y m.f+@.;.(.t+e.z.Y.P.P.P.P.P.D.'+0.G.y C d 4 p v =+9 9 '     ",
"R @ 8 ] c ; i 9 H Q J K o+w+. %.U &.*.o.7+^+m+`.!+|+%+x.'+k.[+t+r.>.>.r.t+[+~.[+t+<+:+q.4+5+.+s+u+9+>+s.-+W H.y+w.M.A.P.P.C.C.P.N.y.F.H.+ ; 5 3 7 ~ # @ H I Q   ",
", i ; :.6 v =+@ N N I M + o+w+. %.U 2._.l+k+[+e.Q.V.).R.i+u+I.<+f+*+X H.8+/+0.2+x+C+W 4++.k+n+v+v.%+L.[+s+_+4+0.].g.Y.C.C.C.C.A.N.j.&+;+-.! :.4 :.% i G K + L M ",
"d+8 n c o x E @ G G H Q K + o+w+. $.3.G. +j+@+]+R.s+(.>.>.H.(..+f+Y :+>.7+X c+B+-.=._+(./.g+1+!+M.N.Z.x.J.:+W j+q+y.Z.A.C.A.Y.D.g.y.g+/+5.t :.4 :.% # H o+w++ M ",
"1 D * :.m }.E 9 @ 9 G I M L + o+S T U *.=.l++.Z f+:+5+U.a+8.<+b+k+/+<+,.a+7+@.T._.o.c+2+!.L.~+h.Y.C.O.`.[+b+C+C+k+d.!+Y.C.N.M.}+L.[+I.c+I D 5 e :.; ) I R w++ M ",
"u m 7 7 - $ E , 9 9 G H J K L + R S T U 4.|.p.c+a+..b+i+J.>+q+!.6+!.q+n+y+u+s+f+l+;.c+ .t.w.}+i.Y.C.O.z.x.n++.T.>.J.L.D.Y.z.x.v+>+b+4+G w C c [ c ; ) Q w+. o+K ",
"* ] d 7 / $ =+' 9 @ N I J M K L + R w+. 3.=.l+j+u+c.v+{.W.y.f.`.`.e+|+#+x.z+[+9+<+U.q.>. .F.z+!+h.Y.O.i.}+,+s+T.3+/+m+$+z.'+F.0+7._+U N E ! r 2 5 ; =+J . T w++ ",
":.d e 7 / $ ) F , 9 G I Q J M K o+o+R U -.:+/+F.&+W.!+M.D.O.Y.Y.Y.N.i.Z.M.z.e+{.K.a..+c+4+j+t+].!+i.N.O.i.W.t+7.T.+.l.u.u.l.(.3.J 1.7+-+*+1.P m 5 % =+M %.U . o+",
":.d [ c n }.# (+F ' 9 N I Q J K R S &.p.+.s.d.L.!+X.N.A.P.P.P.P.C.D.z.E.E.$+$+}+#+u.t+,.l+6.x+y+].}+D.A.O.`.g+2+B+-.Y r.8+>.*., w+a+t+h+t+8.2.( 5 % =+L 3.2.%.o+",
"* ] d c } 1 > P [.j F 9 N H I J R 2._+Z b.,+e+i.O.A.C.P.P.C.C.C.O.~+'+,+,+{.y.~+X.!+k.]+0+*+6.x+t+{.z.A.O.j.{+/+W K + . o+M R T..+F.'+|+].R.B+y :.~ [.R *.4.%.o+",
"u m 7 c m v A ) =+E [.F 9 @ G H w+;.8.9+].j.h.A.C.C.C.C.C.C.C.A.h.%+c./+9.@+[+#+X.h.~+e.A+<+C+B+.+]+W.X.g.1+l.f+2.P > P H 3.C+++V.%+X.M.#+A+S.d+] w ' T G.G.%.+ ",
"1 D * :.= ~ y k i # E [.F ' 9 I 3.H.y+].}+D.A.A.Y.O.Y.Y.A.C.C.Y.z.].;+6.;..+l.v.z.Y.O.$+w.F.j+3+3+,.A+m+Q.>+..5.G d+) &.>.s+r+d.f.h.A.N.j.!.Y # ^ }.G U V 1.U R ",
"A }.n c p s 8 z k > # =+[.(+@ R _+b+&+!+D.C.C.Y.D.h.D.O.A.C.C.D.e+^.8+1.*.a+l.w.g.Y.C.N.~+].s.S.V p.+.0+r.-+3+L =+O @ S.t+Q.L.}+D.P.P.O.~+{+f+=+p t Q 2._.V 3.. ",
"(+d+D :.:.- 1 B A d+> # =+[.I 5.m.c.#+h.C.P.C.Y.D.h.N.O.A.P.C.g.w.).-+2.G.8.K.y.Z.Y.C.C.N.`.{+b+6.S w+$.%.$.U . I E L m.,+$+N.Y.P.B.P.Y.g.,+Z P * B L G.o._.3.T ",
"J j v 7 d & v ! O z d+> # =+L 5+y+{.$+A.B.P.C.O.D.N.Y.C.C.P.Y.j.[+/+q.U =.s+u.~+N.A.C.P.P.h.|+h+.+T j (+J V c+*+p.w+T 8+Q.M.C.P.P.P.C.A.g.u.Z P = d+w+_.5._.3.. ",
"T H t ] [ = ( t B O A d+k # S 8.g+j.D.C.B.C.N.Z.g.M.O.C.P.P.N.#+]++.=.U  +'.e.i.C.P.P.P.P.C.Z.k.++G.9 R  +8.u+^+..B+G.(.V.e+h.A.P.P.A.h.`.!.Y # C i %.5.3+o.3.. ",
"4.L B 6 g { D }.! B B O d+E 2.9.].X.A.P.P.N.$+)+x.#+E.i.D.D.g.{.a.6.&.4.S.r+L.N.B.P.C.C.P.P.D.1+^+ +R 5.,.]+u.u.]+8.3+c+i+m+E.Y.P.A.i.`.Q.s._+y } E 3.p. +T.4.$.",
"V K $ :.q 7 / | $ ! ! ! A @ p.a.'+h.C.P.A.z.w.^.>+t.v+z+'+'+k.A+j+1.w+-.m.t.f.Y.B.P.A.Y.A.C.N.#+]+Y V W s+^.#+|+u.u+q.=.Z t.)+N.A.M.#+[+/.Y S | ; , V B+6.W |.&.",
"  j u f _ 4 = D 1 $ 8 }.d+R 5+t+L.D.C.C.D.y.c. .a+f+..++I.a.;+8. ++ o+q.'.,+E.A.P.A.N.D.Y.C.Y.!+d./+B+=..+c.%+E.W.]+>.&.c+b.1+M.X.W.A+r.4+S A ; A R p.C+X q.;.  ",
"    4 a 0 g 7 n ( x 1 w k 2.Z t.)+D.A.Y.i.e.'.W S R $.G.5.p.p._.w+@ R :+l.1+X.A.C.O.h.h.O.C.C.X.w.y+7+&.l+@+1+z.`.!.f+T p.'.k.f.w.n+x+3.) ~ - t J 5.7+:+U.7+    ",
"    7 2 g q 3 o <.| v | i o. .^.`.N.Y.O.M.v.k+|.@ [.P (+9 H Q H , (+. Z !.f.h.A.C.O.h.h.O.C.P.h.)+t.H.o+|.;+e.Z.g.u.m.T |.9.^.v+r+H.T $ ^ b m j |.5+.+Z a+>.    ",
"    8 ~ o b #.] - % ~ ; i -.b+d.!+N.Y.O.i.x.y+U.*.Q j =+=+E P P E P $.` ,+~+N.Y.A.O.D.D.Y.C.P.O.}+g+(.J %.2+v.h.h.z+r.. . H.a.I.7+N ; 7 q _ u K c+8.0+8++.5+    ",
"    9 i % d _ 2 = / s <.> p.0.&+!+N.Y.Y.D.`.d.^++. +4.%.R M G j E F V /+{.M.N.O.Y.O.D.D.Y.C.P.A.g.u.8.Q S 9.v.h.h.z+r.o+E %.W 3+I r _ < l 7 ! 4.+.9.++..-+X     ",
"      j ( d a [ ] C - / d+-.k+v+j.D.Y.Y.Y.X.#+&+F.^+/+0+j+7._+2.L %.*+r+L.h.Y.O.Y.Y.O.O.Y.C.P.A.g.,+j+M $.++e.Z.z.&+8.H <.~ t 8 - [ < < :.}.L c+<+a.0.0+a+      ",
"      k r 2 q n.d ^ C & y _.<+6+e+h.O.Y.Y.D.z.`.#+1+e.m+[+F.;+(.C+U.b+g+j.O.A.Y.A.Y.Y.Y.A.C.C.N.`.!.a+K 1.b+k.j.W.>+>.E ] n.l _ : < h a - N @...s.r+^+2+j+      ",
"        s C 5 n.b c p o 1 %.x+c.)+h.O.O.O.O.D.h.D.D.h.X.!+x.&+>+b.t+g+L.X.Y.A.Y.O.O.O.O.Y.A.Y.g.w.J.X + 5.s+h+,+t.<+o.$ e a < h h h : [ }.G.8./.l.t+u+++        ",
"        t ( = f q e :.] <.G C+y+L.D.A.O.D.D.O.Y.A.C.C.A.D.X.!+y.W.L.`.X.N.Y.O.D.D.D.D.D.N.O.D.`.g+s+5.K =.f+b+b+(.5.j & l : < h h < e s G *+u+c.t.t+0.0+        ",
"          x m f l b 4 2 C A o.'.1+D.C.Y.N.N.O.Y.Y.Y.A.C.A.Y.N.D.h.D.O.A.C.A.O.h.i.i.h.D.N.O.h.%+).>.+ ' %.;.4+3++ B m f < < < < < 0 n @ 6.2+A+g+h+).0.          ",
"          w n 6 4 [ 3 4 ] % w+<+z+Z.A.A.Y.O.Y.O.D.N.Y.A.C.A.Y.Y.A.C.C.C.C.A.O.D.i.i.D.O.Y.Y.Z.e.I.|.> 8 ) @ @ =+( c 0 h h < : : #.p i W /+t.v+&+^.>+            ",
"            z }.n 5 4 2 :.= ' f+6+j.D.A.A.Y.O.D.h.D.Y.A.C.A.O.O.Y.A.Y.Y.Y.O.O.N.h.D.O.A.A.N.~+&+8+M s o & / - o d a h h h < : a p z *.m.A+Q.k.~.[+K.            ",
"            L ' $ = :.7 6 p A @./.k.~+O.C.Y.D.h.D.O.Y.A.A.A.Y.Y.A.Y.O.N.D.D.D.N.N.O.A.C.Y.M.L.>+>.=+] e b n._ : < h h h h < q 6 t U a+b.v+{.z+u.{+              ",
"              K # ~ C ^ ^ ^ | . (.A+)+N.C.Y.h.h.N.Y.Y.Y.Y.Y.A.A.Y.O.O.N.N.D.D.N.Y.A.C.C.O.j.{+2+|.}.[ n.q a : < < < h h h : 6 y %.H.R.g+z+{.,+g+                ",
"                (+B s p 6 6 } k |.k+z+M.A.Y.N.D.O.Y.N.D.D.N.Y.Y.O.O.Y.A.Y.O.O.Y.A.C.A.Y.M.e.s.6.F & l _ a : < < : < < h q ^ t T :+s.{+w.'+Q.V.F.                ",
"                9 k ~ = 6 6 { / F >.F.W.X.O.O.O.Y.O.D.h.h.D.N.N.N.O.A.C.Y.O.O.Y.C.C.O.z.x.>+Y H r e 0 : < < h < : : < 0 p z U H.i+g+'+L.e.d.A+                  ",
"                    ( } p 6 { o v w+a+l.1+g.D.N.Y.O.D.D.N.N.D.D.N.Y.A.Y.N.h.D.O.A.O.z.w.l.(.%.| f 0 < < h h h h < : b C z 3.-+s.g+w.L.'+u.h+                    ",
"                    ~ r C { o = - 8 + -+l.{.e+X.D.O.N.N.Y.O.N.D.N.Y.A.Y.N.h.D.N.D.~+v.9+-+w+}.7 0 < < h h h h < : q m E |.f+s.!.{.x.w.~.^.A+                    ",
"                        - m = m - u $ S U.^+g+W.E.M.i.D.Y.A.A.Y.O.Y.C.A.N.i.M.X.}+{.r+U.R 1 c l : : < h h h a 4 = % E =.,.y+^.m+w.v.,+^.                        ",
"                        <.r n n / r <.$ H 6.2+F.d.v.y.E.h.A.C.A.Y.Y.C.O.X.`.x.k.{+b.>.H % c _ : : : < < < 0 2 % =+w+W m.J.g+m+{.v.Q.^.                          ",
"                            ; s n } r D 8 N =.S.8.I.A+].e+X.i.Z.M.Z.Z.~+L.{+J.++Z 4+J s #.< h h < < _ e ^ n x 9 _.U.s+y+V.u.].z+z+                              ",
"                              % & o - <.( $ > F L 3+x+s.h+u.m+m+m+].m+{+F.++7+3.@ z r 3 : < < < : _ 2 u A G U _++./+y+t.6+v+~.m+                                ",
"                                  p C - <.( 1 8 z 9 &.@.Y 8.,.,.,.,.m.(.7+o.H 8 m 2 [ [ 4 5 ] ^ { m ; =+. W :+` 0.@+).>+p+V.                                    ",
"                                    * - ; w 8 t B A # (+N J J Q I H N , E B ( n o * C - D w t z k E G &.@.a+0+I./.b.@+r+9+n+                                    ",
"                                        }.8 x x $ B A > # ) i d+z B ! $ x w v | | 1 $ z ) ' I + . 3.o.4+-+,.s+k+'.'.0.0.                                        ",
"                                          t w ( x O i E [.[.[.[.[.[.j j j [.[.[.j F @ I L . 3.1.o.p.4+>.(.m.8+r.s+2+<+                                          ",
"                                                  B d+> i ) P (+9 H J K + o+R R S T $.3.*.1.|.5.-. +q.5+Y -+Y -+Z                                               ",
"                                                      B B A ) F N J + w+. %.$.U 3.*.G.1.V |.=.T.3+W 4+X 5+S.X                                                   ",
"                                                              , N Q K + o+R S . %.U 3.*.4.G._.                                                                  ",
"                                                                N I Q J Q M L o+R S %.U U &.                                                                    "};
