/* XPM */
static char * memo_hidpi_xpm[] = {
"80 80 253 2",
"  	c None",
". 	c #696969",
"+ 	c #6A6A6A",
"@ 	c #686868",
"# 	c #616161",
"$ 	c #535353",
"% 	c #444444",
"& 	c #383838",
"* 	c #2D2D2D",
"= 	c #222222",
"- 	c #1C1C1C",
"; 	c #1D1D1D",
"> 	c #242424",
", 	c #505050",
"' 	c #5A5A5A",
") 	c #5F5F5F",
"! 	c #474747",
"~ 	c #565656",
"{ 	c #5B5B5B",
"] 	c #484848",
"^ 	c #3B3B3B",
"/ 	c #303030",
"( 	c #262626",
"_ 	c #181818",
": 	c #191919",
"< 	c #1E1E1E",
"[ 	c #3A3A3A",
"} 	c #454545",
"| 	c #4D4D4D",
"1 	c #4E4E4E",
"2 	c #424242",
"3 	c #070707",
"4 	c #121212",
"5 	c #282828",
"6 	c #373737",
"7 	c #3E3E3E",
"8 	c #393939",
"9 	c #313131",
"0 	c #272727",
"a 	c #202020",
"b 	c #141414",
"c 	c #111111",
"d 	c #2E2E2E",
"e 	c #343434",
"f 	c #0F0F0F",
"g 	c #030303",
"h 	c #1A1A1A",
"i 	c #3C3C3C",
"j 	c #555555",
"k 	c #050505",
"l 	c #060606",
"m 	c #0E0E0E",
"n 	c #171717",
"o 	c #1B1B1B",
"p 	c #151515",
"q 	c #131313",
"r 	c #101010",
"s 	c #161616",
"t 	c #0C0C0C",
"u 	c #020202",
"v 	c #333333",
"w 	c #494949",
"x 	c #464646",
"y 	c #040404",
"z 	c #080808",
"A 	c #212121",
"B 	c #252525",
"C 	c #232323",
"D 	c #0A0A0A",
"E 	c #323232",
"F 	c #2B2B2B",
"G 	c #292929",
"H 	c #2F2F2F",
"I 	c #353535",
"J 	c #3F3F3F",
"K 	c #3D3D3D",
"L 	c #0D0D0D",
"M 	c #090909",
"N 	c #0B0B0B",
"O 	c #2C2C2C",
"P 	c #404040",
"Q 	c #4C4C4C",
"R 	c #5C5C5C",
"S 	c #646464",
"T 	c #6B6B6B",
"U 	c #666666",
"V 	c #5E5E5E",
"W 	c #575757",
"X 	c #1F1F1F",
"Y 	c #434343",
"Z 	c #545454",
"` 	c #585858",
" .	c #606060",
"..	c #747474",
"+.	c #8C8C8C",
"@.	c #9D9D9D",
"#.	c #A4A4A4",
"$.	c #A7A7A7",
"%.	c #A5A5A5",
"&.	c #999999",
"*.	c #858585",
"=.	c #717171",
"-.	c #636363",
";.	c #595959",
">.	c #515151",
",.	c #363636",
"'.	c #525252",
").	c #656565",
"!.	c #787878",
"~.	c #989898",
"{.	c #B9B9B9",
"].	c #CDCDCD",
"^.	c #D5D5D5",
"/.	c #D8D8D8",
"(.	c #D6D6D6",
"_.	c #C8C8C8",
":.	c #ACACAC",
"<.	c #8F8F8F",
"[.	c #4F4F4F",
"}.	c #414141",
"|.	c #737373",
"1.	c #828282",
"2.	c #9E9E9E",
"3.	c #BEBEBE",
"4.	c #D9D9D9",
"5.	c #E6E6E6",
"6.	c #E8E8E8",
"7.	c #EAEAEA",
"8.	c #EDEDED",
"9.	c #E4E4E4",
"0.	c #CFCFCF",
"a.	c #B5B5B5",
"b.	c #6F6F6F",
"c.	c #8A8A8A",
"d.	c #8E8E8E",
"e.	c #898989",
"f.	c #A2A2A2",
"g.	c #C5C5C5",
"h.	c #DFDFDF",
"i.	c #EBEBEB",
"j.	c #E9E9E9",
"k.	c #E0E0E0",
"l.	c #ECECEC",
"m.	c #E5E5E5",
"n.	c #C1C1C1",
"o.	c #818181",
"p.	c #4B4B4B",
"q.	c #6E6E6E",
"r.	c #878787",
"s.	c #A0A0A0",
"t.	c #B0B0B0",
"u.	c #B6B6B6",
"v.	c #B7B7B7",
"w.	c #B3B3B3",
"x.	c #B2B2B2",
"y.	c #F0F0F0",
"z.	c #DDDDDD",
"A.	c #CECECE",
"B.	c #DEDEDE",
"C.	c #E7E7E7",
"D.	c #E3E3E3",
"E.	c #D1D1D1",
"F.	c #676767",
"G.	c #2A2A2A",
"H.	c #767676",
"I.	c #8D8D8D",
"J.	c #ABABAB",
"K.	c #C9C9C9",
"L.	c #DADADA",
"M.	c #DCDCDC",
"N.	c #DBDBDB",
"O.	c #EFEFEF",
"P.	c #F1F1F1",
"Q.	c #CACACA",
"R.	c #A9A9A9",
"S.	c #A3A3A3",
"T.	c #BDBDBD",
"U.	c #CCCCCC",
"V.	c #AEAEAE",
"W.	c #909090",
"X.	c #F2F2F2",
"Y.	c #F4F4F4",
"Z.	c #F6F6F6",
"`.	c #929292",
" +	c #7F7F7F",
".+	c #BABABA",
"++	c #C2C2C2",
"@+	c #9C9C9C",
"#+	c #7D7D7D",
"$+	c #4A4A4A",
"%+	c #5D5D5D",
"&+	c #7A7A7A",
"*+	c #F5F5F5",
"=+	c #F7F7F7",
"-+	c #D3D3D3",
";+	c #7E7E7E",
">+	c #959595",
",+	c #A1A1A1",
"'+	c #939393",
")+	c #979797",
"!+	c #AFAFAF",
"~+	c #B8B8B8",
"{+	c #CBCBCB",
"]+	c #D0D0D0",
"^+	c #D4D4D4",
"/+	c #E1E1E1",
"(+	c #B1B1B1",
"_+	c #AAAAAA",
":+	c #7B7B7B",
"<+	c #797979",
"[+	c #6C6C6C",
"}+	c #F3F3F3",
"|+	c #F9F9F9",
"1+	c #E2E2E2",
"2+	c #C3C3C3",
"3+	c #A8A8A8",
"4+	c #C7C7C7",
"5+	c #BFBFBF",
"6+	c #D2D2D2",
"7+	c #888888",
"8+	c #777777",
"9+	c #F8F8F8",
"0+	c #FAFAFA",
"a+	c #868686",
"b+	c #848484",
"c+	c #9B9B9B",
"d+	c #949494",
"e+	c #9A9A9A",
"f+	c #EEEEEE",
"g+	c #A6A6A6",
"h+	c #BBBBBB",
"i+	c #BCBCBC",
"j+	c #969696",
"k+	c #919191",
"l+	c #727272",
"m+	c #C4C4C4",
"n+	c #C6C6C6",
"o+	c #D7D7D7",
"p+	c #707070",
"q+	c #C0C0C0",
"r+	c #808080",
"s+	c #FBFBFB",
"t+	c #FCFCFC",
"u+	c #7C7C7C",
"v+	c #838383",
"w+	c #ADADAD",
"x+	c #6D6D6D",
"y+	c #8B8B8B",
"z+	c #B4B4B4",
"A+	c #FDFDFD",
"B+	c #9F9F9F",
"C+	c #626262",
"D+	c #757575",
"                                                            . + @ # $ % & * = - ; > * & % , ' )                                                                 ",
"                                                          ! ~ { ' $ ] ^ / ( ; _ : < ( / [ } | 1 2                                                               ",
"                                                      3 4 5 6 7 7 8 9 0 a : b c c b : a 0 d e 9 > f g g h i j                                                   ",
"                                                  k l l 3 m n o - : p 4 c 4 q b 4 r f f c b s b t k u g s v w , x                                               ",
"                                          2 d q g g y l z t c b p s n : ; A B B C A < o _ p q c m D 3 k m = E e F F 8                                           ",
"                                        7 & ( f g g k t s a G H 9 v I 6 [ 7 J J K ^ [ & I 9 * G C - p L M m p p p A / I e                                       ",
"                                    f < 0 B h t N c _ A O 6 P ! Q $ R S @ T + U V W $ , | w % 7 6 / 0 X n c t z M p X A 0 Y )                                   ",
"                                  4 k D f f L 4 < G e 7 ! 1 Z `  ...+.@.#.$.%.&.*.=.-.R ;.j >.Q ] Y K ,.H 5 X p t M t L o 8 '.V                                 ",
"                              Q e p g k M f _ ( ,.% , '  .-.).. !.~.{.].^./.(._.:.<.!..  .{ W j Z '.1 w Y ^ 9 ( h f z 3 4 5 ^ ! | [.                            ",
"                            w }.* 4 l f h ( v 2 >.) + =...|.|.1.2.3.4.5.6.7.8.9.0.a.@.*.b.) ;.` ;.` j '.| ] }.& * = n r m b a H i }.                            ",
"                        9 v v * < f 4 A 9 P , -...1.c.d.d.e.c.f.g.h.i.j.k.h.6.l.m.(.n.#.o.S ' ' ' ` j '.[.| p.} K E 0 ; s c q ; 5 H / H                         ",
"                        5 > ; p r n 0 8 p.{ q.r.s.t.u.{.v.w.x.g.k.y.8.z._.n.A.B.C.D.E.x.c.F.' ;.;.W Z >.[.[.1 p.x 7 ,.* > - s b _ < > 5                         ",
"                    9 5 a s m L : G.7 >.-.H.I.J.K.L.h.k.h.M.N.D.O.P.9.Q.R.~.S.T.^.N.U.V.r.U ;.;.;.` ~ $ , 1 | p.] } }.[ 9 5 < n p n o A ( F                     ",
"                    v > n t f X E } ~ ).H.W.V.U.9.y.X.P.y.O.y.Y.Z.O.L.{.`.!. +@..+++a.@+#+S ' ;.' ' ` j '.[.Q $+] ! } P 8 / ( < h : : ; = G                     ",
"                ` w v ; 4 - / ! %+q.&+1.<.J.U.m.X.*+y.7.6.i.P.=+Z.i.-+x.W.;+*.>+,+s.'+1...@  .R { { ' W j '.1 p.w x Y P ^ I * B a < < < X ( / 8                 ",
"                [.2 * s - K ) ;+)+$.!+x.~+{+9.Y.=+O.B.]+U.^+/+i.8./+K.(+#.%.:._+@.c.&+H.:+<+[+ .R R ' ;.W Z >.1 w % P K ^ & e d 0 C = a < C O 6                 ",
"              [.}./ a : I # I.t.{+/.z.B./+j.}+|+*+1+2+3+f.(+4+(.L.A..+w.5+].6+g.3+7+8+o.'+'+ +. ) { ' ;.W ~ $ , $+% 2 x , W ;.~ | }.E ( A A ( v 2               ",
"            Q 2 / - _ d Z *.w.^+j.P.X.X.Y.9+0+=+i.]+3+a+b+c+u.2+++a._+u.E./+h.Q.$.*.#+d+t.x.&.<+).R ' ;.` ~ Z >.p.x Q ).1.d+e+~.I.8+~ e B C C d i %             ",
"            ,.* < m = $+8+$.]+j.X.P.l.l.y.Z.Z.f+M.3.c+a+d.g+h+i+:.c+@.{.4.9.(.{.j+ +7+J.{+A.a.k+l+) ;.;.;.W Z >.1 '.F.<.u.].^+E.m+_+o.~ & F ( G.H v             ",
"          8 ( s L f I . @+n+D.f+6.N.]+0.o+k.m.z._.w.$.3+a.n+0.m+%.I.)+i+z.1+{+$.e.7+#._.1+m.E.V.a+).' ' ;.W Z >.W p+>+.+L.8.X.y.5.E.t.7+V 8 F G 0 G 9           ",
"          7 0 f z _ ! *.h+h.f+6.]+a.#.S.!+3._.2+w.t.q+E.M.9.1+A.R.d.e+5+h.D.{+R.>+S.n+1+X.Y.C.Q.@.=.V { ;.W ~ ` [+>+q+B.f+*+Z.*+X.j.o+a.1.| E * G.* I           ",
"        2 & B f m B ~ )+A.f+Y.1+h+'+r+a+~.g+:.g+s.x.-+7.X.O.1+_.$.j+g+_.9.6.o+n.~+4+/+}+0+s+Y.z.w.r.+ %+;.W ' [+d.~+z.y.}+l.9.D.i.y.7.]+@+-.J v d 9 I 8         ",
"        9 0 h m : E # s.(.}+Z./+~+`.r.>+$.R.c+d.d+a.z.Y.9+7.]+x.2.,+~+^.i.y.C.B.z.m.X.0+t+t+9+6._.,+u+# ;.` -.r.(+^.l.X.j.^+3.T.6+C.8.M.(+;+j [ 9 E E E         ",
"      $+d n m _ G.P F.,+^+P.Z.C.K.x.(+T.4+h+c+v+k+{./+=+9+9.n.S.s.x.U.1+P.Z.Y.P.X.*+0+t+t+t+0+y.N..+I.U ' ) ..2.{+6.X.i.^+(+<.d.!+6+C.m.{+,+p+% I I E d         ",
"      $ ,.s f > 8 p.. @+U.7.*+y.1+L.N.k.B.K.,+a+j+3.9.9+9+9.2+w+x._.h.O.=+0+0+9+=+=+|+0+0+s+0+Z.i.A.2.q.) x+y+a.N.y.y.M.a.a+-.-.7+~+k.O.9.n.e.1 8 ^ 6 E         ",
"    ;.Q e s q * % $ . d+n./+X.=+}+X.X.8.z.q+c+y+f.4+C.|+|+i.^+_.0.B.8.=+s+t+s+|+Y.y.f+O.P.*+9+0+Y.N.J.:++ v+_+A.C.f+k.q+W.V 2 ] b.R.M.*+X.6+j+Z ^ J i & 6       ",
"    7 I > c : e p.` F.c.z+(.8.9+0+s+=+C.n+,+c.'+w.^+8.|+0+}+7.5.j.P.=+0+0+|+=+X.j.k.4./.z.C.X.|+=+1+{.<. +@+4+9.f+/+q+j+T x ^ >.&+t.B.*+P.E.>+$ i 2 }.7 [       ",
"    o n r 4 C ^ , ' -.u+s.g.9.Z.t+A+=+h.w.c.r.S.4+1+X.|+|+=+Z.Z.9+s+s+=+y.j.D.N.]+m+.+v.3.0.D.X.*+6.{+_+@+z+L.8.6.].B+x+Q 7 ] p+2._.5.O.1+3.*.$+8 2 } Y K 6     ",
"    g g M h d Y Z { V + *.V.^+8.9+t+=+k.u.)+@.i+N.f+Z.9+9+9+9+|+0+0+Z.l.M.U.q+z+R.2.'+<.)+t.]+6.}+O.B._.i+Q.D.7./.a.*.~ P } C+d+2+D.O.5.n+e+F.[ E J ] ! P &     ",
"    g g L = ,.] j ' { V q.`..+L.y.0+|+6.].T.2+(.7.Z.9+9+9+|+9+Z.X.l.D.^.n.w+2.`.e. +H.p+&+2.4+m.}+*+8./+4.h.7.D.m+&.b.Q } # y+~+B.Y.*+z.w+|.% 5 F K $+Q % i     ",
"    f k f 0 i p.Z ` ;.{ -.8+)+3./+Y.9+X.6.D.m.l.Y.|+0+|+|+9+*+f+1+-+2+x.f.>++.a+o.u+!.H.1.$.]+i.=+0+=+X.O.O.f+4.V.;+{ w j 1.x.o+f+9+P.-+c+;.G - 0 ^ p.[.w 2     ",
"  2 > L c G.P | Z W ` ' %+-.H.B+K.5.Y.|+|+=+=+=+9+|+0+9+}+8.9./._.a.f.'+c.a+*.a+7+d.)+s.:.g.k.X.0+s+s+s+|+X.9.n+j+U | , [+2.].7.Y.y.B..+v+} : s C & $+, 1 $+    ",
") 1 9 b q * Y [.Z ~ W ` ' { U b+J.A.6.=+t+t+0+|+9+9+Z.y.m.(.m+z+g+e+<.e.r.e.I.'+@+J.i+Q.^.k.i.}+=+|+s+s+9+j.U.g+:+~ | -.e.u.z.P.y.z..+d.V / b q ; v ! >.'.>.    ",
"' | e n n / } >.j ~ W ` ' { # p++.w./.O.|+s+0+9+Z.X.7.M.Q.u.,+k+c.e.+.`.e+#.V.v.5+{+/./+1+k.h.1+j.P.=+|+X.N.x.*.-.[.` ;+_+]+6.8.B.T.d.{ I X s q : H % >.j W W   ",
", } H n o E ! '.j ~ ~ ` { %+V -.D+c+2+/+}+0+0+9+Y.6.-+i+g+>+c.a+7+<.c+R.{._.^.z.h.1+9.k.^.g.{.5+^+6.}+Y.C.Q.@+x+Z W =.2.Q.m.8.k.3.k+-.& X o _ b _ * Y >.` ' ` W ",
"Y 8 0 n X I ] '.Z Z j W { %+%+%+F.v+R.A.7.|+s+=+f+L..+e+7+b+I.e+$.w.3.Q.(.D.i.l.m.z.^.K.u.2.W.#.Q.5.X.l.^.x.a+%+Z p+&.++/+f+m.K.&.S K 0 < - _ q _ d % $ ' { ;.W ",
",.d X n = ,.] >.$ '.'.j ;.R R { ) x+y+u.B.Y.0+*+6.A.J.d.7+d+$.i+0.L.k.9.6.i.i./+0.i+w+2.I. +o.g+6+l.X./+i+W.[+j # W.q+/+O.j.]+_+!.} 0 a < o n 4 _ H x j R %+' W ",
"G C : _ ( & ! 1 , , >.Z ` ' { ' ' V l+@.Q.C.Y.Y.6.6+~+R.V.h+Q.L.j.O.8.5.k.4.6+2+J.'+r+|.b.:+)+T.k.P.8.6+S.=.W ' 8+R./.P.X.B.v.7+' e A X ; h s c n H x ~ %+V { ` ",
"< : q _ 0 & x Q Q | >.j ` ;.;.;.` ' U a+w+E.7.Y.y.9.o+-+4.k.5.l.O.l.k.]+3.!+#.)+a+<+l+p+&+~.i+L.8.y./+n.W.) >.T '+5+D.}+l.0.2.@ P G.A < o _ p c n d } j )  .%+' ",
"n q r _ 5 & % w $+p., Z W ` ` ` ` ' # |.k+{.z.P.*+X.f+f+X.}+f+C.B.6+n.:.d+r+H.l+|.;+I.e+R.q+N.f+Y.j.A.3+u+W ` o.t.^.7.l./.w.r+Q d ( A ; h n b r s O % ~ # -.) { ",
"n q f n 0 ,.Y ] ] $+1 '.j W ` ` ;.' V ).&+#.A.j.*+|+9+9+=+y.1+A.v.S.d+*.H.x+q.H.*.@.v.Q.o+9.y.=+}+z.a.7+U ` x+@.{+5.l.M.v.e.R & 0 > A ; h n q m p * } ` S U # { ",
"; _ 4 n B I }.! ! ] p.[.'.j W ;.' { R %++ d.~+L.O.0+s+=+f+B.4+_++.D+T T p+;+W.,+(+m+/.6.P.=+|+*+C.K.e++ ;.x+'+T.B.7.B.5+<.R [ F ( > A ; o n 4 L s H ] R F.@ # { ",
"0 A n n > v P x x x w Q [.'.j W ;.' ' '  .!.c+2+5.9+0+P.z.++#.a+b.-.U |.r.s..+U././+7.X.9+s+|+l.6+w+r+{ %+e.~+4.j.k.5+'+).K G ( B C a ; h n c t _ v |  .. . # ' ",
"e O < n A 9 K Y % % x w Q [.$ ~ ` ;.' ' R U o.!+N.Y.=+j.U.3+a+x+U p+v+~.!+n+L.m.C.m.D.6.}+0+=+D.i+<.. W [+B+0.6.C.A.2.F.}.H 0 > C A < o _ p f D : 6 >.-.T + -.R ",
"2 & 0 _ < * 8 P 2 2 % x ] Q , $ ~ W ;.' { V =.B+A.i.}+5.g.s.o.|.&+<.R.n.^.D.7.C.z.0.n+E.6.=+}+4.R.D+;. .v+w.N.7.h.T.7+[./ F 0 > A X - : s c N 3 : 8 j U [+T ). .",
", % H : : 0 e ^ 7 J }.Y x $+| , $ j W ;.;.' @ d..+N.l.6.E.z+,+@.3+.+A.h.i.8.D.^+q+:.S.h+h.O.m.g.d+C+j 8+#.{+C.8.z.{.v+$+* G.0 = X ; h n b m z k h i ` @ q.x+@ -.",
"' | e _ 4 A H 6 [ i 7 2 } ] $+Q [.'.j ~ ~ W ) <+2.n+m.O.5.(.Q.Q.^.h.5.l.8./+_.:.)+y+'+v.M.9.].%.&+{ @ )+n+m.}+}+m.2+y+Q G.0 > a ; - h _ q L l y - 7 { T p+p+[+  ",
") 1 9 b t ; F v ,.8 i P Y } x w Q , '.$ $ Z ;.U b+w.B.}+*+f+C.6.f+O.6.k.o+2+f.o.|.1.S._./+N.a.*.).T d..+h.Y.0+9+8.].'+, 5 C a < - h : s c D k y < 2  .p+....    ",
"  2 > t M : 5 / I 6 [ K P 2 Y x $+1 [., >.>.$ ;.|.g+o+X.|+9+*+Y.X.C.6+i+_+>+:+@ p+)+2+/+j.^.%.q.) *.a.4.O.0+t+0+X.^+e+j G A < ; o _ p c t 3 k M C ] U D+<+!.    ",
"    f k z s > * v ,.& [ i 7 P % ] p.Q | 1 [.[.>.F.&.{+7.=+s+0+X.1+{+w+k+&+@  .T y+u.M.l.9.g.'+-.. @+A.i.=+0+0+0+Y./.s.%+/ a - o : s c t z k z p d , x+:+#+u+    ",
"    g u l q a G.9 I 6 & 8 ^ K }.% ! w $+$+p.Q | %+7+~+N.y.0+=+9.2+B+1.T R ` U 7+t.-+6.6.]+R.u+).r+(+M.}+0+0+|+0+*+N.3+T K C : : _ b m z k y f B P %+D+o.1.r+    ",
"    g g k m : B d e I ,.,.& ^ K J 2 % x x ] w w Z H.,+K.6.Y.l.]+f.|.{ $ ~ T y+!+]+C.O.k.{.e.. !.f.Q.C.Z.0+|+|+0+Z.k.a.o.>.G s s p c N l g g _ & W =.v+c.7+b+    ",
"    _ q L D 4 X F 9 v e I ,.& 8 [ K J 2 Y % x x Q -.c.{.h.8.k.5+<.-.~ R q.W.u.^+6.X.O.(.%.|.q.)+g.D.P.9+|+|+|+0+9+C.n+e+U v q q 4 f M y u y = $+q.a+`.'+I.r.    ",
"    6 H X L N h 0 * / 9 E v I ,.6 8 ^ K J }.Y Y x $ H.:.L.l./+++&.&+:+c.B+i+/.l.Y.X.1+n.k+!.'+T.k.}+9+9+9+|+|+0+|+y.4.w.u+K 4 f m N l g u l G.;.r+j+@.&.<.r.    ",
"    [.Y * q z p = G F * d H 9 v I ,.& 8 ^ K J J P ! @ S.o+O.l.(.u.f.3+h+0./+O.=+9+j.U.#.*.`.T.h.P.|+0+|+9+9+9+|+s+=+7._.I.! b t M l y g 3 n [ . W.f.S.e+d.*.    ",
"      $+/ q l r o C 0 G G F d 9 v e I ,.& [ i i ^ 7 R ~.0.8.}+j.^.Q.0.z.i.*+0+t+9+m.2+,+)+w.L.P.9+|+|+|+9+=+=+|+s+s+X.6+)+[.h N k g u g s e ` r+s.:.$.@+<.      ",
"      2 5 b D t b - = B ( 0 F d / 9 9 v I & 8 8 & & '.c.q+1+X.Y.8.j.i.P.Z.0+s+t+9+j.0.h+i+]+j.Z.=+=+9+|+|+9+9+|+s+|+f+0.j+'.a N g u u l B , !.&.!+z+_+2.'+      ",
"        O C n t m s < A = > 0 G.O * * H v I ,.,.,.e w :+w+^+l.9+|+9+|+|+|+|+|+0+9+y.1+4.N.m.X.=+Z.Z.=+|+0+0+|+0+|+y.z..+*.$+< D u u y f I F.`.V.{.a.3+@.        ",
"        i v = f D 4 : ; X = B 0 0 5 G O / E E v v E P + &.g.5.=+s+s+s+0+|+9+=+9+9+*+P.f+O.X.=+|+9+=+9+|+s+0+9+*+y.B.T.'+S ,.b l u g r G., r+3+i+3.z+#.)+        ",
"          & > f D r s h ; X = C C C B 5 O d d H / H 8 ' r.~+k.*+0+|+|+|+9+=+=+=+=+9+9+9+9+|+|+|+0+0+|+0+|+Y.7.k.-+h+'+).K ; z y g l B >.:+,+T._.++z+S.          ",
"          ,.( o q c p _ o ; X a a A = B 5 G G G.F G.9 p.8+V.z.*+|+9+9+9+9+9+=+=+9+9+|+0+s+s+0+0+s+0+9+Z.P.9.A.u.s.*.# i X t y y N < % 8+#.n.0.A.m+v._+          ",
"            J ,.( n p _ h o - - ; < a = > > B B ( B G J T 3+N.*+|+9+9+9+9+9+9+9+9+9+9+|+s+s+0+0+|+*+i./+^.++#.1.-.! d h N k y l ; }.+ ~.5+-+(.].3.x.            ",
"            ;.| 6 a n : o o : : h - ; X a a A A A a C I -.S.L.*+0+|+|+9+9+9+9+9+9+9+|+|+0+|+=+*+P.m.]+~+f.c.b.>.e _ l g u g M o ^ U k+a.A./.^+g.(+,+            ",
"              W P F ; : o o : n s n : o - ; ; < ; - < d %+s.4.Z.t+s+0+|+9+9+|+|+|+|+0+0+=+P.6.h.^+++$.a+U $+I B p 3 u u u k h ^ # I.w.U.o+(.U.h+$.              ",
"                % e > h : o o _ b c q s _ h o o o : o G.' B+4.Z.t+t+0+|+9+9+|+0+|+9+Z.}+8.h.K.w.B+c.=.j 6 h 3 y g u u u D ; ^ # e.!+U.N.N.E.++(+                ",
"                } & 5 o _ h - h p c m r q p n _ _ s _ 0 ` 2./.Z.t+s+0+|+|+|+0+9+Y.8.9.L.0.h+2.;+# w ,.0 n z u u u u u k ; }.U y+w+_.L.h./.{+.+J.                ",
"                    5 X : _ o ; o n c m L f 4 b p q b C W @./.*+t+0+|+9+9+=+*+O.9.-+3._+~.b++ | 9 n 3 y g u u u u g t A P @ W.t._.o+z.4.0.2+                    ",
"                    5 = - h o < a X o p f N L f r m c C W 2./.*+t+0+9+Y.O.6.B.6+++:.<.=.` % v C q l u u u u u g y z = ] b.'+(+4+^.4.(.0.n+T.                    ",
"                        = X ; X C ( B a : c m L N z r ( ' B+/.*+0+=+X.j.N._.x.@.c.H.%+}.5 q 3 y g u u u u u l c < O ! =.e+v._.6+^+E.{+g.                        ",
"                        0 ( B > B 0 G.G B a o p L l r G R s./.P.P.C.L.Q.u.@.#+) $+[ F - f k u u u u u g g k q F % R H.~.~+U.-+6+U.g.q+i+                        ",
"                            / F B > G.d d O 5 = : c s F ' c+]+9.M.n+:.'+ +. Q H : t k g g u u u u g l r - ( ,.1 T a+B+u.K.6+E.Q.5+~+                            ",
"                              / > a 0 * / 9 / d G B C O , r.z+2+v.e+D+'.7 E = q z g u u g g g g y 3 b G J '.S <+<.#.u.2+Q.K.2+.+x.:.                            ",
"                                  < C 5 * 9 e ,.6 I E / 7 # o.y+r+@ ] B c m N D M D t f 4 p : - X C H x  .8+y+@+_+z+h+5+5+{.w+%.                                ",
"                                    a 5 d E e 6 ^ K K [ 8 }.Q [.w 7 / > X ; o h h - a ( O v 8 J % w $ S &+d.2._+x.z+z+w.w._+c+                                  ",
"                                        ,.,.v e 8 7 Y % Y 2 }.P 7 ^ 8 ,.e v 9 / / E 6 7 } | j R C+@ p+#++.)+B+%._+_+g+#.g+                                      ",
"                                          8 v e [ P % x ! ] ] w w w $+$+$+$+$+$+$+Q , j { # F.T p+H.#+r.k+j+)+e+B+B+c+                                          ",
"                                              i 2 % Y 2 2 % ! p.[.$ ~ ` ' R %+V V  .-.U + [+q.b.l+8+;+a++.d.+.I.'+                                              ",
"                                                  ! }.K i 7 } Q '.~ ' R ) # S ).).F.. T [+[+T T q...:+1.r.r.b+                                                  ",
"                                                              [.Z ~ W ` ' R )  .# -.).U S C+# C+F.                                                              ",
"                                                                j j Z Z Z ~ ;.{ R V  . .R ' ;.;.                                                                "};
