/* XPM */
static char * sync_hidpi_xpm[] = {
"54 48 330 2",
"  	c None",
". 	c #6B0000",
"+ 	c #6F0000",
"@ 	c #6D0000",
"# 	c #7B0101",
"$ 	c #780101",
"% 	c #720101",
"& 	c #01167D",
"* 	c #021170",
"= 	c #750101",
"- 	c #7E0202",
"; 	c #840202",
"> 	c #820202",
", 	c #023277",
"' 	c #012F8D",
") 	c #01299D",
"! 	c #01229B",
"~ 	c #011885",
"{ 	c #020E69",
"] 	c #02095E",
"^ 	c #830202",
"/ 	c #870202",
"( 	c #700000",
"_ 	c #0157A0",
": 	c #0152AF",
"< 	c #0141B7",
"[ 	c #012EB1",
"} 	c #01219E",
"| 	c #011A8B",
"1 	c #01167F",
"2 	c #850202",
"3 	c #870303",
"4 	c #024581",
"5 	c #015EA5",
"6 	c #0170C3",
"7 	c #006DCF",
"8 	c #0059CE",
"9 	c #0040C4",
"0 	c #0030B8",
"a 	c #0128AF",
"b 	c #0124AA",
"c 	c #011987",
"d 	c #020F6C",
"e 	c #015FA5",
"f 	c #016DBF",
"g 	c #0077D5",
"h 	c #0078E0",
"i 	c #006DDE",
"j 	c #005AD5",
"k 	c #0045CC",
"l 	c #0033C5",
"m 	c #002BC0",
"n 	c #0027B3",
"o 	c #01209E",
"p 	c #0172C4",
"q 	c #0078D6",
"r 	c #0075DD",
"s 	c #0076E3",
"t 	c #0078E6",
"u 	c #006FE1",
"v 	c #0055D5",
"w 	c #0039CB",
"x 	c #002EC7",
"y 	c #0027B4",
"z 	c #0121A1",
"A 	c #007AE1",
"B 	c #0076E4",
"C 	c #0039CC",
"D 	c #002EC9",
"E 	c #002DC7",
"F 	c #002CC2",
"G 	c #7C0101",
"H 	c #880303",
"I 	c #7D0202",
"J 	c #770101",
"K 	c #024782",
"L 	c #0162A7",
"M 	c #0177C7",
"N 	c #007CD8",
"O 	c #0077DF",
"P 	c #007AE7",
"Q 	c #0079E5",
"R 	c #006DDD",
"S 	c #005AD2",
"T 	c #0044CA",
"U 	c #0033C7",
"V 	c #002EC8",
"W 	c #8B0303",
"X 	c #8C0303",
"Y 	c #800202",
"Z 	c #020043",
"` 	c #020344",
" .	c #022158",
"..	c #024985",
"+.	c #0163A7",
"@.	c #0178C6",
"#.	c #0089E1",
"$.	c #008BEC",
"%.	c #007FE8",
"&.	c #0078E5",
"*.	c #0070DB",
"=.	c #0058C7",
"-.	c #013DB6",
";.	c #002AB7",
">.	c #002BC1",
",.	c #810202",
"'.	c #8D0303",
").	c #7F0202",
"!.	c #020947",
"~.	c #021A52",
"{.	c #023870",
"].	c #015FA2",
"^.	c #017BCA",
"/.	c #008DE3",
"(.	c #0096F2",
"_.	c #0095F5",
":.	c #008BEE",
"<.	c #007CE4",
"[.	c #006CD8",
"}.	c #0059C4",
"|.	c #013FA7",
"1.	c #01258E",
"2.	c #011B8C",
"3.	c #002CC3",
"4.	c #0126AF",
"5.	c #890303",
"6.	c #910404",
"7.	c #710101",
"8.	c #021C53",
"9.	c #015798",
"0.	c #0176C2",
"a.	c #0099F6",
"b.	c #009CFA",
"c.	c #0088E2",
"d.	c #0173CF",
"e.	c #0158BC",
"f.	c #013DA6",
"g.	c #012688",
"h.	c #02136A",
"i.	c #002DC5",
"j.	c #0028B6",
"k.	c #940404",
"l.	c #022C62",
"m.	c #025190",
"n.	c #0173BF",
"o.	c #018BE1",
"p.	c #0098F4",
"q.	c #009EFC",
"r.	c #008FE6",
"s.	c #0176C4",
"t.	c #0158A3",
"u.	c #013C8F",
"v.	c #012582",
"w.	c #021370",
"x.	c #021171",
"y.	c #02336B",
"z.	c #015EA1",
"A.	c #0182D4",
"B.	c #0097F2",
"C.	c #009FFE",
"D.	c #009BF8",
"E.	c #0188DD",
"F.	c #0165AB",
"G.	c #023C78",
"H.	c #021E60",
"I.	c #02115D",
"J.	c #011884",
"K.	c #02095D",
"L.	c #0096F0",
"M.	c #009BF7",
"N.	c #015DA0",
"O.	c #023067",
"P.	c #020747",
"Q.	c #0125AD",
"R.	c #02518F",
"S.	c #0171BB",
"T.	c #0186DA",
"U.	c #02508E",
"V.	c #02285E",
"W.	c #020445",
"X.	c #011886",
"Y.	c #021D54",
"Z.	c #023971",
"`.	c #0161A5",
" +	c #021951",
".+	c #020144",
"++	c #002CC1",
"@+	c #0125AC",
"#+	c #02356D",
"$+	c #0127B3",
"%+	c #0029BA",
"&+	c #0125AB",
"*+	c #01209D",
"=+	c #0126B0",
"-+	c #0124A8",
";+	c #0123A6",
">+	c #8F0303",
",+	c #960404",
"'+	c #920404",
")+	c #730101",
"!+	c #7C0201",
"~+	c #820302",
"{+	c #830302",
"]+	c #740101",
"^+	c #990505",
"/+	c #980404",
"(+	c #8E0303",
"_+	c #720100",
":+	c #850302",
"<+	c #9B0704",
"[+	c #A90906",
"}+	c #AC0A06",
"|+	c #860302",
"1+	c #900303",
"2+	c #9A0505",
"3+	c #6C0000",
"4+	c #7A0201",
"5+	c #9A0604",
"6+	c #BE0D09",
"7+	c #D2110C",
"8+	c #D7120C",
"9+	c #9B0505",
"0+	c #A80906",
"a+	c #EA150F",
"b+	c #F01610",
"c+	c #990404",
"d+	c #930404",
"e+	c #8A0303",
"f+	c #760101",
"g+	c #890402",
"h+	c #B00A07",
"i+	c #DA120D",
"j+	c #F11610",
"k+	c #F61711",
"l+	c #F41711",
"m+	c #EC150F",
"n+	c #0127B1",
"o+	c #0028B7",
"p+	c #8F0403",
"q+	c #A50806",
"r+	c #C40E0A",
"s+	c #E2130E",
"t+	c #F21610",
"u+	c #F51711",
"v+	c #ED1510",
"w+	c #DD130D",
"x+	c #C10D09",
"y+	c #9C0704",
"z+	c #9C0505",
"A+	c #970504",
"B+	c #AD0907",
"C+	c #C50E0A",
"D+	c #DB120D",
"E+	c #EB150F",
"F+	c #EF1610",
"G+	c #DF130E",
"H+	c #C30E09",
"I+	c #A20805",
"J+	c #9D0505",
"K+	c #980504",
"L+	c #B00907",
"M+	c #C30D0A",
"N+	c #D3100C",
"O+	c #E1130E",
"P+	c #CA0F0A",
"Q+	c #AA0906",
"R+	c #950404",
"S+	c #9C0605",
"T+	c #C70E0A",
"U+	c #D0100C",
"V+	c #D6110C",
"W+	c #E0130E",
"X+	c #DC120D",
"Y+	c #C70F0A",
"Z+	c #AE0A06",
"`+	c #930503",
" @	c #020D68",
".@	c #011988",
"+@	c #0122A4",
"@@	c #0122A3",
"#@	c #7D0101",
"$@	c #9E0505",
"%@	c #A70706",
"&@	c #B50A08",
"*@	c #C50D0A",
"=@	c #D2100C",
"-@	c #CE0F0B",
";@	c #CD0F0B",
">@	c #CF100B",
",@	c #C60E0A",
"'@	c #920503",
")@	c #011781",
"!@	c #011C91",
"~@	c #011F98",
"{@	c #A20606",
"]@	c #B30908",
"^@	c #C80E0A",
"/@	c #CB0F0B",
"(@	c #BC0C08",
"_@	c #AB0906",
":@	c #020F6A",
"<@	c #011782",
"[@	c #011E96",
"}@	c #011F9A",
"|@	c #011783",
"1@	c #910503",
"2@	c #011C90",
"3@	c #B70A08",
"4@	c #CA0F0B",
"5@	c #970404",
"6@	c #A30606",
"7@	c #B40A08",
"8@	c #BF0D09",
"9@	c #9E0605",
"0@	c #A40805",
"a@	c #020859",
"b@	c #01147A",
"c@	c #011D93",
"d@	c #011F99",
"e@	c #840302",
"f@	c #020044",
"g@	c #020553",
"h@	c #021172",
"i@	c #011B8D",
"j@	c #02024B",
"k@	c #020A5F",
"l@	c #021273",
"m@	c #020145",
"n@	c #02034D",
"o@	c #020655",
"                                                                                                            ",
"                                                                                                            ",
"                                              . . . . . .                                                   ",
"                                          . . . . . . . .                                                   ",
"                                  + @ . . . . . .                                                           ",
"                                # $ % @ . . .                       & & *                                   ",
"                            = - ; > $ + .                       , ' ) ! ~ { ]                               ",
"                            - ^ / ; # (                         _ : < [ } | ~ 1                             ",
"                        = - 2 3 ^ -                         4 5 6 7 8 9 0 a b } c d                         ",
"                        - ^ 3 2 - =                         e f g h i j k l m n o c                         ",
"                    = - 2 3 ^ -                         4 e p q r s t u v w x m y z c d                     ",
"                    - ^ 3 2 - =                         e f q A s B t u v C D E F y o c                     ",
"                  G / H ^ I J                       K L M N O s P Q R S T U x V E m n } 1                   ",
"                % - W X Y =                 Z `  ...+.@.#.$.%.&.Q *.=.-.[ ;.>.E V E m b ~ ]                 ",
"                = ,.'.'.).%                 !.~.{.].^./.(._.:.<.[.}.|.1.2.o y F E V 3.4.| {                 ",
"              J ).5.6.'.).7.                8.{.9.0./.a.b.(.c.d.e.f.g.h.{ ~ z y m E i.j.o ~ *               ",
"              G 5.6.k.'.- 7.                l.m.n.o.p.q.b.r.s.t.u.v.w.    x.c o y F i.m n } 1               ",
"            7.- '.k.6.5.G                   y.z.A.B.q.C.D.E.F.G.H.I.        d c z y m i.m b J.K.            ",
"            7.).'.6.5.).J                   y.z.A.L.M.M.L.A.N.O.P.            x.~ o j.i.3.Q.~ K.            ",
"            7.).'.'.,.=                     l.R.S.A.T.T.A.S.U.V.W.              { | 4.3.3.Q.X.K.            ",
"            7.).X X ).%                     Y.Z.R.z.`.`.z.R.{. +.+              ] ~ b m ++@+~ K.            ",
"            7.).X X ).7.                      Y.l.y.#+#+y.l.8.!.Z                 1 } $+%+&+~ K.            ",
"            7.).X X ).7.                                                          * ~ *+=+-+~ K.            ",
"            7.).X X ).%                                                             { | -+;+~ K.            ",
"            7.).'.'.,.=                                                             ] ~ ;+;+~ K.            ",
"            7.).'.6.5.).J                                                           K.~ ;+;+~ K.            ",
"            7.).>+,+'+5.G                 . @ )+!+~+{+{+~+!+]+                      K.~ ;+;+~ K.            ",
"            7.).>+^+/+(+).%               . _+:+<+[+}+}+[+<+|+]+                    ] ~ ;+;+~ K.            ",
"            7.).1+2+2+6.,.=               3+4+5+6+7+8+8+7+6+<+!+                    { | -+;+~ K.            ",
"            7.).1+2+9+k.5.).J             @ ).0+7+a+b+b+a+7+[+~+                  * ~ *+=+-+~ K.            ",
"            7.- (+c+9+c+d+e+).f+        )+J g+h+i+j+k+l+m+7+[+~+                  1 o n+o+-+J.K.            ",
"              G 5.d+c+9+^+d+5.).J     $ > p+q+r+s+t+u+v+w+x+y+!+                K.J.-+o+n+o 1               ",
"              J ).5.k.9+z+c+d+e+).= f+; A+B+C+D+E+t+F+G+H+I+:+)+                K.~ -+=+*+~ *               ",
"                = ,.6.2+J+z+^+d+5.> :+K+L+M+N+O+E+E+G+P+Q+:+% @                 ] ~ ;+-+| {                 ",
"                % ).(+c+z+J+z+c+R+k.S+L+T+U+U+V+W+X+Y+Z+`+f+3+.                  @.@+@@@J.]                 ",
"                  #@5.d+c+z+J+z+$@%@&@*@U+=@-@;@>@,@Z+'@                      * )@!@*+~@1                   ",
"                    ).5.d+^+z+J+{@]@^@U+-@;@U+/@(@_@                        :@<@[@}@!@|@                    ",
"                    f+Y e+d+c+z+{@]@^@U+;@/@/@x+Q+1@                        |@2@}@[@|@:@                    ",
"                        Y 5.d+c+J+%@3@*@-@4@(@Q+                        :@|@[@}@2@|@                        ",
"                        f+).5.(+6.5@6@7@x+8@Q+1@                        <@2@}@[@|@:@                        ",
"                            #@).,.5.k.9@q+0@                        a@b@c@d@2@|@                            ",
"                              % = ).H W H e@                      f@g@h@i@c@<@:@                            ",
"                                  J G G                       Z Z Z j@k@l@b@                                ",
"                                                          Z Z Z Z Z m@n@o@                                  ",
"                                                  Z Z Z Z Z Z Z Z                                           ",
"                                                  Z Z Z Z Z Z                                               ",
"                                                                                                            ",
"                                                                                                            "};
