/* XPM */
static char * todo_hidpi_xpm[] = {
"80 80 253 2",
"  	c None",
". 	c #636363",
"+ 	c #575757",
"@ 	c #404040",
"# 	c #313131",
"$ 	c #3A3A3A",
"% 	c #3E3E3E",
"& 	c #383838",
"* 	c #2D2D2D",
"= 	c #232323",
"- 	c #1E1E1E",
"; 	c #202020",
"> 	c #262626",
", 	c #2E2E2E",
"' 	c #444444",
") 	c #505050",
"! 	c #5B5B5B",
"~ 	c #616161",
"{ 	c #626262",
"] 	c #474747",
"^ 	c #525252",
"/ 	c #4A4A4A",
"( 	c #363636",
"_ 	c #2A2A2A",
": 	c #353535",
"< 	c #2F2F2F",
"[ 	c #1D1D1D",
"} 	c #191919",
"| 	c #1B1B1B",
"1 	c #272727",
"2 	c #303030",
"3 	c #454545",
"4 	c #4E4E4E",
"5 	c #545454",
"6 	c #424242",
"7 	c #030303",
"8 	c #111111",
"9 	c #343434",
"0 	c #323232",
"a 	c #242424",
"b 	c #141414",
"c 	c #121212",
"d 	c #151515",
"e 	c #1A1A1A",
"f 	c #393939",
"g 	c #0F0F0F",
"h 	c #020202",
"i 	c #050505",
"j 	c #0E0E0E",
"k 	c #0A0A0A",
"l 	c #0D0D0D",
"m 	c #101010",
"n 	c #171717",
"o 	c #181818",
"p 	c #0C0C0C",
"q 	c #040404",
"r 	c #131313",
"s 	c #070707",
"t 	c #161616",
"u 	c #212121",
"v 	c #0B0B0B",
"w 	c #292929",
"x 	c #333333",
"y 	c #3B3B3B",
"z 	c #414141",
"A 	c #3F3F3F",
"B 	c #3D3D3D",
"C 	c #1C1C1C",
"D 	c #252525",
"E 	c #222222",
"F 	c #4B4B4B",
"G 	c #4D4D4D",
"H 	c #4F4F4F",
"I 	c #515151",
"J 	c #565656",
"K 	c #585858",
"L 	c #484848",
"M 	c #434343",
"N 	c #373737",
"O 	c #1F1F1F",
"P 	c #090909",
"Q 	c #3C3C3C",
"R 	c #595959",
"S 	c #5D5D5D",
"T 	c #5F5F5F",
"U 	c #606060",
"V 	c #4C4C4C",
"W 	c #282828",
"X 	c #080808",
"Y 	c #2B2B2B",
"Z 	c #666666",
"` 	c #656565",
" .	c #646464",
"..	c #686868",
"+.	c #6B6B6B",
"@.	c #6C6C6C",
"#.	c #6D6D6D",
"$.	c #6A6A6A",
"%.	c #060606",
"&.	c #464646",
"*.	c #535353",
"=.	c #5C5C5C",
"-.	c #696969",
";.	c #6F6F6F",
">.	c #717171",
",.	c #6E6E6E",
"'.	c #676767",
").	c #787878",
"!.	c #838383",
"~.	c #8E8E8E",
"{.	c #989898",
"].	c #A0A0A0",
"^.	c #A4A4A4",
"/.	c #A2A2A2",
"(.	c #9B9B9B",
"_.	c #8B8B8B",
":.	c #707070",
"<.	c #727272",
"[.	c #747474",
"}.	c #7A7A7A",
"|.	c #8D8D8D",
"1.	c #9A9A9A",
"2.	c #AAAAAA",
"3.	c #BABABA",
"4.	c #C9C9C9",
"5.	c #D3D3D3",
"6.	c #D9D9D9",
"7.	c #D7D7D7",
"8.	c #CECECE",
"9.	c #B8B8B8",
"0.	c #939393",
"a.	c #494949",
"b.	c #555555",
"c.	c #737373",
"d.	c #858585",
"e.	c #929292",
"f.	c #9E9E9E",
"g.	c #A8A8A8",
"h.	c #B0B0B0",
"i.	c #B9B9B9",
"j.	c #C3C3C3",
"k.	c #CFCFCF",
"l.	c #DCDCDC",
"m.	c #E8E8E8",
"n.	c #F0F0F0",
"o.	c #F5F5F5",
"p.	c #F3F3F3",
"q.	c #EBEBEB",
"r.	c #DADADA",
"s.	c #BBBBBB",
"t.	c #969696",
"u.	c #2C2C2C",
"v.	c #5E5E5E",
"w.	c #818181",
"x.	c #999999",
"y.	c #BCBCBC",
"z.	c #CCCCCC",
"A.	c #DDDDDD",
"B.	c #E1E1E1",
"C.	c #E5E5E5",
"D.	c #F1F1F1",
"E.	c #F6F6F6",
"F.	c #FAFAFA",
"G.	c #FCFCFC",
"H.	c #FBFBFB",
"I.	c #F7F7F7",
"J.	c #EFEFEF",
"K.	c #DEDEDE",
"L.	c #C0C0C0",
"M.	c #949494",
"N.	c #7D7D7D",
"O.	c #8C8C8C",
"P.	c #A9A9A9",
"Q.	c #B5B5B5",
"R.	c #C1C1C1",
"S.	c #F8F8F8",
"T.	c #F9F9F9",
"U.	c #F2F2F2",
"V.	c #B7B7B7",
"W.	c #9F9F9F",
"X.	c #B3B3B3",
"Y.	c #C6C6C6",
"Z.	c #D2D2D2",
"`.	c #DBDBDB",
" +	c #ECECEC",
".+	c #D5D5D5",
"++	c #B2B2B2",
"@+	c #878787",
"#+	c #848484",
"$+	c #A5A5A5",
"%+	c #B6B6B6",
"&+	c #D6D6D6",
"*+	c #E3E3E3",
"=+	c #E9E9E9",
"-+	c #EAEAEA",
";+	c #F4F4F4",
">+	c #CDCDCD",
",+	c #757575",
"'+	c #767676",
")+	c #BDBDBD",
"!+	c #D1D1D1",
"~+	c #DFDFDF",
"{+	c #E7E7E7",
"]+	c #EDEDED",
"^+	c #E4E4E4",
"/+	c #EEEEEE",
"(+	c #919191",
"_+	c #979797",
":+	c #C2C2C2",
"<+	c #E2E2E2",
"[+	c #AFAFAF",
"}+	c #828282",
"|+	c #7B7B7B",
"1+	c #8F8F8F",
"2+	c #D4D4D4",
"3+	c #AEAEAE",
"4+	c #A6A6A6",
"5+	c #808080",
"6+	c #E6E6E6",
"7+	c #D0D0D0",
"8+	c #CBCBCB",
"9+	c #CACACA",
"0+	c #777777",
"a+	c #898989",
"b+	c #BFBFBF",
"c+	c #C4C4C4",
"d+	c #9C9C9C",
"e+	c #A3A3A3",
"f+	c #E0E0E0",
"g+	c #797979",
"h+	c #ADADAD",
"i+	c #9D9D9D",
"j+	c #7E7E7E",
"k+	c #7F7F7F",
"l+	c #C8C8C8",
"m+	c #D8D8D8",
"n+	c #C7C7C7",
"o+	c #5A5A5A",
"p+	c #BEBEBE",
"q+	c #8A8A8A",
"r+	c #A7A7A7",
"s+	c #C5C5C5",
"t+	c #ABABAB",
"u+	c #ACACAC",
"v+	c #B1B1B1",
"w+	c #959595",
"x+	c #A1A1A1",
"y+	c #B4B4B4",
"z+	c #868686",
"A+	c #909090",
"B+	c #7C7C7C",
"C+	c #888888",
"D+	c #FDFDFD",
"                                                            . + @ # $ % & * = - ; > , & ' ) ! ~ { ~                                                             ",
"                                                          ] ^ / ( _ # : < > [ } | ; 1 2 $ 3 4 5 5 ) 6                                                           ",
"                                                      7 8 1 9 0 a | ; = ; } b 8 c d e ; 1 < : f f 0 a g 7                                                       ",
"                                                  h h h i j d d g k l m 8 8 8 8 8 m g g 8 b n } o b p q h h h                                                   ",
"                                          6 , r 7 h h q s p 8 b d t n e - u = a a u - e n d r 8 j v s i 7 h h 7 g 1 f                                           ",
"                                        % & > g 7 7 i p t ; w < 0 x : & y % @ z A B $ ( 9 # * w = C d l s 7 h 7 p ; 2 : 2                                       ",
"                                    g - 1 D e l j r } E * & z ] F G H I 5 J K K J 5 ) G F L M % N < 1 O n 8 v s P d O u O _ Q                                   ",
"                                  s q k g g j t = , N z / I J R ! S S T U { . { U S ! K J 5 I V ] z Q ( < W O d p P p l c = 9 A                                 ",
"                              > o X 7 i k m | Y y L ^ ! . Z `  . . . .. .  .` Z ` Z ..+.@.#.@.$.Z T 5 / M y # > e g X %.v o > x A &.                            ",
"                            W ; b s i g | W ( 3 *.=.. -.;.>.,.+...Z `  . .'.+.>.).!.~.{.].^.^./.(._.>.R V &.@ N * u n g p j o 1 : y                             ",
"                        * W ; t l v r u # @ H =.'.+.@.,.:.<.>.,.$.-.@.:.[.}.!.|.1.2.3.4.5.6.6.7.8.9.0.,.J V a.3 B 0 1 [ d 8 r | D Y , <                         ",
"                        W u t v v } _ $ a.b.U $.<.c.:.@.@.#.;.>.c.}.d.e.f.g.h.i.j.k.l.m.n.o.o.p.q.r.s.t.:.b.V F &.% : u.= C n t } - a 1                         ",
"                    * W ; t j p } u.@ I v.Z -.,.[.[.;.+.+.:.).w._.x.2.y.z.7.A.B.C.q.D.E.F.G.H.F.I.J.K.L.M.-.*.V L ' A & 2 W O e o e C O a W                     ",
"                    W u t v p C < 6 5 { @.,.#.#.;.:.;.c.N.O.(.P.Q.R.8.l.m.D.o.E.I.S.T.H.H.H.F.F.F.T.U.A.V.|.-.I L 3 M A f # W u [ | } e O >                     ",
"                * W ; t j p e < ' J . @.:.:.#.@.;.[.N.O.W.X.Y.Z.`.B.m.J.o.S.F.F.T.T.F.F.F.T.S.S.T.T.I. +.+++@+v./ 3 6 @ B & 2 W E - C | [ D 2 f                 ",
"                W u t v p C < ' J { $.#.,.,.>.).#+M.$+%+Y.&+*+=+=+-+J.;+S.T.F.T.S.S.T.T.T.S.S.S.S.S.I.p.m.>+/.,+J &.z @ A y : , W = u ; O a * N                 ",
"              W ; t l v o , ' b.~ ..-.+.,.'+!.M.g.)+!+~+{+]+n.-+~+l.^+/+o.T.F.T.S.S.T.T.T.T.T.T.S.I.I.I.U.K.s.(+$.G 6 @ A B & x * W > > D D W 9 M               ",
"            > ; t v k n _ z 5 ~ Z ..$.[.#+_+2.y.>+A.]+o.S.E.J.~+4.:+k.<+D.S.T.T.T.T.F.F.T.S.I.E.;+;+E.S.I.q.5.[+}+K 3 z A B f : 2 u._ _ _ W > < Q '             ",
"            [ d l X b W B ) U ..@.:.|+1+P.L.2+B.=+D.S.H.F.p.C.z.3+4+s.7.]+S.T.S.S.S.I.o.p.n. +=+{+=+J.o.I.;+m.z.W.:.^ ' A Q f ( 0 * Y Y , * _ Y < x             ",
"          ( O j X c = $ 4 =.'.<.5+(+^.9.>+~+ +;+I.T.F.H.S.]+7.9.x.{.Q..+]+T.T.o.n.-+6+B.l.&+7+8+9+8.6.6+U.T.o.*+R.{.,.V A Q f ( 0 * w _ , 2 < Y W w #           ",
"          % 1 g v - 9 V ~ ,.0+a+].i.k.~+=+n.o.S.T.T.T.F.I.m.9+g.e.f.b+A.D.T.E. +K.k.c+3.++2./.d+(.e+Q.k.-+T.H.p.f+b+|.R z B $ N 0 * W 1 Y < 0 2 u.* (           ",
"        6 & D g 8 W M T g+|.W.++Y.r.-+;+I.S.S.S.T.T.T.T.E.^+R.W.M.2.>+{+;+;+=+7.R.h+i+(+@+j+,+;.>.k+(.:+C.S.G.F.D..+/.$.a.A y & 9 , W D 1 * 9 : 0 0 ( f         ",
"        # 1 e j e 9 I :.1+3+l+r.6+J.E.T.T.S.I.I.S.T.T.T.;+~+y.i+(.%+m+/+;+=+!+Q.i+_.5+}.,+<.>.>.'+@+^.n+{+I.F.F.E.~+X.w.o+M Q $ ( 2 Y D a _ 9 & N : x 9         ",
"      / , n j o _ z ! ).x.p+K.D.E.S.T.F.T.E.U.J.n.p.E.E./+m+%+W.^.R.f+D.J.`.9.M.k+}.N.!.q+(+1.].r+X.c+r./+S.T.T.I.=+8+/.[.V Q $ ( # u.> u > # & $ & 9 ( @       ",
"      *.( t g a $ 4 ~ ).t.y.~+p.S.T.F.F.T.U.{+K.A.^+/+J.*+z.h.e+[+8+6+D.=+7+2.a+k+@+t.^.h.)+l+Z.m+K.C.]+o.S.S.T.T.;+^+j.1+R A $ : 2 Y > ; E u.( Q Q f Q ]       ",
"    R V 9 t r * 3 b.{ >.a+h+!+m.p.S.T.F.S. +7.s+R.8+r.K.Z.)+t+P.y.&+q.U.=+Z.X.i+i+2.s.4.5.A.{+/+p.E.I.S.T.S.S.T.H.H.U.&+/...&.$ 9 2 u.> ; O > 0 B @ % @ ] V     ",
"    % : a 8 } 9 V R T Z ,+0.%+2+-+E.T.F.I.m.8+[+e+u+)+j.3.h+4+h.l+~+J.o.J.~+8+b+j.k.A.{+ +D.o.S.F.H.H.F.T.S.S.T.H.G.I.~+v+N.b.B x # u.1 u [ ; , Q M 6 z 6 M     ",
"    C n m c = Q I ! =.S Z }.{.y.A.n.I.F.S.q.Z.Q.f.x./.4+e+i+].Q.Z.m.;+S.o.]+<+A.f+m.D.E.S.T.F.F.F.F.F.F.T.T.T.T.H.G.S.{+s+x.+.' x # * 1 u | | w f M &.' A Q     ",
"    t s k e , ' J S =.! T -.j+e+9+C.p.F.F.p.6+!+V./.1._+w+w+W.3.`.n.T.H.T.E.U.n.U.o.S.F.T.T.T.S.S.T.T.T.I.o.p.o.S.G.F.n.r.Q.}+4 9 2 u.1 u e n E x @ a.L z y     ",
"  b.2 c l E N / + =.! o+S U +.q+h.Z.q.S.H.F.;+m.2+R.++$+d+(.g.c+*+E.G.G.F.T.S.T.T.T.T.S.I.I.S.S.T.T.T.o. +*+K.*+J.S.F.E.=+4.0.K ( < Y 1 u e d C u.% / V 3 @ &.  ",
"g+ .@ | m 1 Q V J o+R R o+=.~ <.(+i.A.p.F.H.T.p.q.B.&+s+X.3+y.5.-+I.T.S.E.E.I.T.T.S.S.S.I.I.I.S.S.I.p.m..+L.Q.j.K.D.S.T.D.2+W.. B < _ 1 u e d o 1 y F 4 a.] 4 5 ",
",+ .' O c _ @ 4 b.K K K R ! S . '+i+n+C.;+T.T.I.I.;+]+f+!+z..+<+q./+q.m.m.]+p.I.S.S.S.T.S.S.E.p./+{+K.z.X._+q+e+z.m.o.F.o.`.t+c./ 0 w 1 u | d d u N a.H G V I b.",
"$.=.A C b * M H b.+ K K R o+=.v...d.2.8.=+E.S.S.T.T.E.n.=+6+{+{+^+l.!+z.k.A.]+I.T.T.T.S.E.U.]+^+7.l+Q.].a+[.>.M.R.B.U.F.E.B.i.a+=.f w > E | d c C 0 &.H H ) *.b.",
"=.) N } t < ' ) b.+ K K R ! =.v.{ >.|.Q.`.n.I.S.T.T.S.E.p. +*+6.z.p+h.P.h.n+<+p.T.S.;+]+*+r.!+Y.Q.x+a+[...Z 0+i+n+^+p.F.S.=+z.^.c.6 _ > E C t 8 o < ' ) *.b.b.J ",
"4 M , n e # 3 I 5 J + K o+=.S v.T  .).].9+6+;+T.T.S.E.p. +K.4.Q.4+1.e.O.(+h+!+-+o.;+=+7.R.h+x+_+_.j+>.-.+.}.M.9.6./+I.F.F.U.f+p+@+V Y > u C n 8 n * M I K o+K J ",
"@ N D n O 9 &.) *.5 J K o+=.S S v.v.$._.y+&+]+S.T.I.p.=+m+R.r+(+z+@+_.@+!.t.i.6. +/+K.:+f.5+<.,.;.<.g+d.w+r+)+.+-+E.T.F.F.S.]+8.w+*.Y a ; C n 8 t * ' *.=.S o++ ",
"9 u.O o a N ] H I ^ b.+ R ! ! =.S S . 0+_+b+<+o.T.I.n.A.b+].q+w.@+w+/.W.A+_.f.R.f+m.m+s._+B+c.'+k+_.1.3+j.5.f+q.;+S.T.S.T.T.U..+i+o+, E - | n 8 n , 3 b.v.T ! + ",
"w E } } 1 f ] 4 H ) 5 J K R R o+=.=.T '.j+r+!+q.E.S.n.m+h.C+}.a+^.3.s+R.3+{.A+u+!+<+l.8+V.P.r+2.h.9.j.Z.<+]+;+I.S.S.S.S.S.T.;+r.$+Z f = C | n 8 n , &.J T U =.K ",
"- } r } W f &.V G H ^ b.+ + K R o+! =.T ,.e.y.l.n.T.;+l.v+d.}.1.c+K.C.K.8+h+e.d+R.`.6+C.f+`.`.l.K.B.6+ +p.I.S.S.S.S.S.T.T.F.E.K.[+).a.W | e n c n , &.+ U ~ S o+",
"n r m o W & ' / F G I 5 b.+ + R o+! =.=.` k+^.9+=+T.I.<+3.A+w.$+.+n.o.q..+y+(+1+h.Z.-+o.I.E.E.I.I.S.S.T.F.F.S.S.S.T.T.T.F.G.S.^+)+O.! < } } n c n , &.+ {  .T ! ",
"n r g n 1 ( 6 L a./ 4 I 5 J K o+! =.=.=.U ;.~.i.f+E.S.m.n+]._.4+5.J.p.6+z.g.@+d.^.9+=+S.G.G.D+D+D+G.G.H.H.T.S.S.T.T.I.I.F.G.T.-+8+x+#.N o n d 8 n , &.R ` Z ~ ! ",
"[ o c n D 9 @ &.] L F H ^ b.+ R ! =.=.=.S  .|+g..+n.I./+m+V.w+1.p+&+`.8.X.e.B+@+t+7+q.S.H.H.H.G.G.H.F.T.T.S.S.T.F.E.n.n.I.H.T.J.r.Q.j+@ n b r m n 2 a.=.'...~ ! ",
"1 u n n = 0 % ' 3 &.a.V H ^ b.K o+! ! =.S v.;.x.Y.^+p.o.-+z.].a+_+2.v+P.w+w.5+d+j.f+U.T.F.T.F.F.F.T.S.S.S.S.I.I.;+q.f+f+ +E.S.p.6+Y.O.L o 8 g l o x G U -.-.~ o+",
"9 u.- n ; < y 6 M ' &.a.F 4 ^ b.+ R o+! =.=.'.C+++.+]+T.;+r.t+5+,+N.d.C+@+~./.b+l.J.S.F.T.S.T.F.T.T.S.S.S.I.p. +~+8.b+R.2+{+U.E.J.7+t.4 e j v P } N I . +.$.. =.",
"z & > n C Y & A z 6 ' &.L F H ^ b.+ R o+=.! ~ ).(.c+6+S.S.<+i.A+g+,+B+a+1.v+9+K.q.;+S.T.S.S.T.F.H.T.I.o.p.n.{+2+i.d+O.t.y+5.q.S.p.&+(.5 ; l %.%.} f b.Z @.+.` T ",
"G 6 * n n 1 9 Q A @ z M &.a.V H ^ b.+ K R R =.-.@+y+~+E.T.q.7+y+x+d+e+h.b+k.K.^+^+6+ +U.E.S.F.H.H.E.]+^+A..+l+h.q+ .o+}.4+8.-+T.o.m+W.=._ m 7 q | Q R -.,.@.` U ",
"+ F x n 8 E # f Q B A 6 3 L / G H I *.b.b.J K T 0+g.7.U.T.o.=+r.z.4.7+m+l.A.r.!+Y.Y.Z.*+D.S.T.I.;+=+&+:+v+/.M.j+U / ! q+i.`.n.F.o.r.$+..N n 7 7 C @ S @.:.@.` T ",
"U *.f } l O , N $ y B @ M 3 ] / G H ) I ^ *.b.K @.(.9+m.E.H.S.D.{+*+*+B.6.8.L.3+f.i+v+k.=+o.U.=+A.8+++_+j+-.R G / { a+++.+q.E.F.o.A.[+).L ; q q - M ~ :.c.;.Z v.",
"..R Q e v | Y 9 & $ y B A z ' ] F G 4 H ) I *.b. ._.9.r.n.H.G.S.n.6+`.9+%+/.0.!.,+,+|.9.~+J.m.5.%+x.w.+.R G V I ` ~.i.m+q.o.S.T.;+~+V.d.5 > i X E ] ` [.0+,+#.  ",
"+.K & n P o > 2 : & f $ Q % z ' L F V G 4 H I ^ =.|+^.8+=+F.G.;+C.Z.)+^.C+>.Z T K K >.$+.+-+<+s+_+$.5 I K '.g+q+W.)+l.J.I.T.S.E.n.6.v+5+) a X r u.4 $.).|+}.    ",
"  / w j s c O _ 0 ( N f y B A z ' ] a./ F V 4 4 5 +.A+)+*+S.T.=+9+2.(+N.,.'..... .S -.1.z.C.<+l+(.:.{ +.B+0.u+R.Z.<+n.S.T.I.;+/+<+n+1.'.y } g a % ! <.j+k+j+    ",
"    c %.i l o a , x : ( f Q B A @ 6 3 ] L a./ a.G S 5+v+K.E.I.~+v+w...@.j+A+(.f._+d.,+1+y.r.*+7.)+4+x+4+v+R.5.*+/+E.F.H.S.U.6+m+s+4+).3 O p } f + :.w.@+d.}+    ",
"    o b l P 8 O _ 2 0 x ( f y B B A z 6 ' 3 3 3 L *.[.P.6.;+o.r.$++.o+|+/.b+k.!+Y.P.#+w.4+8+*+=+<+r.6.`.~+C.]+p.S.F.H.T.p.^+z.v+w+'+) W v %.= V :.@+e.0.O.z+    ",
"    N < O l v } D u., < 0 : & $ y Q B % @ z z z ' V @.^.m+;+o.6.x+` S |.p+A.q.m..+++d.<.e.p+<+p.E.o.o.o.o.E.S.T.F.F.I.J.~+n+$+w.T A D m q %.Y ! !.x.f.x.1+@+    ",
"    H M , r X r - > _ u.* < 0 ( f y y Q Q B % A z ] './.m+o.o.6./.'.{ w+4.6+/+*+l+].'+-.O.s.<+E.F.T.F.F.F.T.T.S.I.o.]+`.s.t.c.*.x n i 7 s n y +.e.^.^.(.1+d.    ",
"      / 2 r %.l o ; > w w _ , 0 ( & f f $ y Q Q % M  .x+m+o.E.`.r+,.{ 1+b+7.7.Y.r+5+. #.t.j.6+I.T.S.T.F.T.T.I.U.m.K.!+V.|.T % W d s h 7 t 9 K 5+x+3+P.f.A+      ",
"      6 W b P k c C = > D 1 _ , 2 x : ( N & f $ $ A U W.7.;+E.K.3+).T |+].h.P.M.}.~ T w.h+Z. +S.T.S.T.T.T.I.U.*+z.X.d+w.=.x t X 7 h h %.D ) ).x.[+y+h+/._+      ",
"        u.= n p j o ; E E = 1 _ u., # x : ( N ( ( $ S i+.+p.E.f+Q.}+v.~ ).k+<.v.^ =.|+e+l+<+U.T.F.F.T.I.U.=+`.c+e+k+U ' Y d %.7 h h q g : '.e.h+i.%+t+x+        ",
"        Q x E g v b | - O ; E D W _ * < # x x 0 # ( ! d+2+U.E.*+)+~.. V *.K I 4 S k+$+Y.f+J.I.T.T.I.;+]+~+9+[+A+;.H # n %.7 h h h 7 m _ ) 5+g.)+b+Q.4+1.        ",
"          & a m v 8 n e C [ - ; a 1 W _ u., < , u.0 R (.2+U.E.m.8+e+c.a.M I . g+M.v+z.<+n.S.T.E.J.{+A.k.y.].}.5 & D d X 7 7 7 7 7 %.D I |+x+p+4.c+V.4+          ",
"          ( > | b c d o e e | C ; E a a D 1 w w 1 , K d+&+p.I.J.A.)+(++.` '+1+u+l+A.-+U.E.I.;+-+r.Y.h.(.z+@.F W m X q 7 7 7 q q v - ' 0+^.R.k.7+4.)+            ",
"            A ( > n b n } } } e C - O O O u a a = Y K i+7.;+T.o. +m+y.4+^.3+p+5.m.;+S.o./+6+`.z.Q.1.|+v.L : E g %.q 7 h h 7 q %.[ z +.x.L.2+m+2+z.j.            ",
"            R G N ; t n } e } } } e | | | C O O u * o+W.m+o.G.F.I./+*+`.r.A.<+-+D.E.;+-+m+j.h+_+5+Z F 2 | l i 7 7 7 7 h h 7 P e $ Z (+%+7+r.m+Z.>+              ",
"              K z u.[ n } | | } t t o } } e | | ; 9 . e+r.E.G.G.G.F.I.E.o.p./+=+^+~+m+4.++w+'+R M 0 E b k i 7 h h 7 7 7 7 i e f U O.X.>+6.m+k.l+                ",
"                &.( > } } | C } b r t o o } } o > L 0+[+K.E.H.F.F.S.I.o.;+/+<+Z.R.v+e+e.B+{ &.Y n p X %.i 7 h h h 7 q q v [ $ T @+h+z.`.l.Z.j.9.                ",
"                L y Y [ } | [ C n r r b d d t n : ..(.n+{+E.I.p.]+{+B.l.7.8.b+2.e.}.` ^ @ < O 8 X %.%.i q 7 h h h 7 q %.- z Z q+t+Y.6.K.7.9+3.                  ",
"                    u.u e e [ O C o b m j g 8 t z 5+V.6.q.J.q.B..+Y.9.u+x+t.z+[.T a.: E b k i 7 7 q q q 7 h h h h 7 l u @ ..A+h.l+&+`.7.>+R.                    ",
"                    Y D - | [ ; E u C t j k v r A B+[+9+5.!+9+p+3+(.z+c.{ *.3 f u.u t p s q 7 7 7 7 7 h h h h 7 q X E ] ,.e.++4.7.`.&+>+j.3.                    ",
"                        E - C O D W > u o 8 l g * o+5+0._+M.~.#+0+'.b.M # u b k i q 7 7 7 7 7 7 q q 7 h h h %.c ; , L :.{.%+9+.+r.&+>+c+                        ",
"                          u e C = w Y _ > u | d o Y % L / a.&.@ f 2 1 [ b v i 7 7 7 h h h h h 7 q q 7 7 7 i b * ] T g+x.9.8+2+.+!+8+j.)+                        ",
"                              n C = _ < 2 , w E } c m g l v k X s %.q 7 7 h h 7 7 7 7 h h h h h 7 7 s m C > ( ) #.a+e+i.9+!+!+9+:+s.                            ",
"                                r [ 1 * # 0 # , w D O } m X q 7 7 7 h h h h h 7 q q 7 7 7 7 7 7 q s b w A ^  .g+A+$+9.s+8+9+j.3.++h+                            ",
"                                    u D _ < x ( N : 2 w ; o b 8 m g j l p k k P k v p g c d } | - E , &.U 0+_.(.g.++i.p+L.s.[+r+                                ",
"                                      [ = _ # N $ Q $ N x < * _ W > D E ; [ C e e C ; > u.x f % M L ^  .}.1+W.2.h.v+h.v+X.3+].                                  ",
"                                          W * 0 N y A z 6 6 @ A B y $ & : x 0 2 2 x & % 3 G b.! U Z ;.N.O.x./.r+P.r+e+/.r+                                      ",
"                                              * x $ @ ' &.L L a.a./ F V V F F / / G ^ J o+T ` $.;.[.B+z+A+_+1.d+f.i+x.                                          ",
"                                                  y A z 6 ' ] F H *.J o+S v.v.v.T ~ ` ..-.$.@.,.:.,+N.d._.~.|.~.0.                                              ",
"                                                      B Q A ' F I b.R v.~ .  . .` '.$.@.@.+.$.$.@.:.).5+d.z+!.                                                  ",
"                                                              V ) *.J R =.v.v.T U ~ .  .` ` . { ` -.>.                                                          ",
"                                                                H ) ^ 5 J K K R o+! ! S T T S S U .                                                             "};
